<svg width="56" height="56" viewBox="0 0 56 56" fill="none" xmlns="http://www.w3.org/2000/svg">
<rect width="56" height="56" rx="28" fill="#2D2A68"/>
<path d="M33.207 43.9996H43.6668V17.4159C40.0095 8.77282 27.0225 12.2388 26.0947 15.7449C29.3066 13.951 31.9799 13.5883 33.207 16.4351V43.9996Z" fill="white"/>
<path d="M22.7933 12.0007H12.3335V38.5845C15.9908 47.2276 28.9778 43.7615 29.9056 40.2555C26.6936 42.0494 24.0205 42.4121 22.7933 39.5652V12.0007Z" fill="white"/>
<path d="M33.1233 28.0002C33.1233 30.803 30.8219 33.089 28.0001 33.089C25.1784 33.089 22.8769 30.803 22.8769 28.0002C22.8769 25.1974 25.1784 22.9113 28.0001 22.9113C30.8219 22.9113 33.1233 25.1974 33.1233 28.0002Z" fill="white"/>
</svg>
