<?xml version="1.0" encoding="iso-8859-1"?>
<!-- Generator: Adobe Illustrator 19.0.0, SVG Export Plug-In . SVG Version: 6.00 Build 0)  -->
<svg version="1.1" id="Layer_1" xmlns="http://www.w3.org/2000/svg" xmlns:xlink="http://www.w3.org/1999/xlink" x="0px" y="0px"
	 viewBox="0 0 481.882 481.882" style="enable-background:new 0 0 481.882 481.882;" xml:space="preserve">
<path style="fill:#FFEE58;" d="M30.641,90.353c0,0,0,30.118,0,120.471c0,120.471,112.414,233.412,210.296,271.059
	c97.882-37.647,210.304-150.588,210.304-271.059c0-90.353,0-120.471,0-120.471C345.032,90.353,240.937,0,240.937,0
	S136.572,90.353,30.641,90.353z"/>
<path style="fill:#FBC02D;" d="M421.109,112.941c0,0,0,24.553,0,97.882c0,62.953-16.783,139.558-150.061,225.28
	c-9.788,6.332-19.885,11.595-30.118,15.661c-10.232-4.066-20.322-9.329-30.118-15.661C82.594,353.649,60.759,278.852,60.759,210.824
	c0-73.261,0-97.882,0-97.882c38.287-0.587,130.854-18.492,180.179-75.294C289.683,94.667,382.317,112.941,421.109,112.941z"/>
<path style="fill:#FFF59D;" d="M30.641,90.353c0,0,0,30.118,0,120.471c0,120.471,112.414,233.412,210.296,271.059V0
	C240.937,0,136.572,90.353,30.641,90.353z"/>
<path style="fill:#FDD835;" d="M60.759,112.941c0,0,0,24.621,0,97.882c0,68.028,21.835,142.825,150.061,225.28
	c9.796,6.332,19.885,11.595,30.118,15.661V37.647C191.612,94.441,99.053,112.354,60.759,112.941z"/>
<path style="fill:#FFFFFF;" d="M241.6,121.871c7.951,0,14.253,6.295,14.253,14.253v3.84c14.81,2.191,27.964,6.581,39.74,13.154
	c5.203,3.012,9.879,8.23,9.879,16.452c0,10.421-8.222,18.364-18.643,18.364c-3.298,0-6.588-0.821-9.592-2.47
	c-7.688-4.111-15.352-7.394-22.746-9.314v41.668c41.66,11.234,59.475,28.235,59.475,58.933s-23.575,50.44-58.12,54.28v14.532
	c0,7.959-6.302,14.261-14.253,14.261c-7.959,0-14.261-6.302-14.261-14.261v-14.795c-19.464-2.47-37.828-9.321-54.001-19.2
	c-5.76-3.569-9.314-9.035-9.314-16.452c0-10.692,8.222-18.65,18.914-18.65c3.561,0,7.394,1.37,10.692,3.561
	c11.512,7.401,22.468,12.627,35.087,15.352v-43.588c-39.477-10.684-58.94-25.758-58.94-58.376c0-30.163,23.032-50.44,57.57-54.008
	v-3.29C227.339,128.158,233.641,121.871,241.6,121.871z M228.717,210.673v-37c-13.161,1.912-18.921,8.493-18.921,17.265
	C209.796,199.439,213.636,205.199,228.717,210.673z M254.483,258.65v38.121c12.883-1.92,19.471-7.959,19.471-17.822
	C273.939,269.892,269.286,263.861,254.483,258.65z"/>
<g>
</g>
<g>
</g>
<g>
</g>
<g>
</g>
<g>
</g>
<g>
</g>
<g>
</g>
<g>
</g>
<g>
</g>
<g>
</g>
<g>
</g>
<g>
</g>
<g>
</g>
<g>
</g>
<g>
</g>
</svg>
