<?xml version="1.0" encoding="iso-8859-1"?>
<!-- Generator: Adobe Illustrator 19.0.0, SVG Export Plug-In . SVG Version: 6.00 Build 0)  -->
<svg version="1.1" id="Layer_1" xmlns="http://www.w3.org/2000/svg" xmlns:xlink="http://www.w3.org/1999/xlink" x="0px" y="0px"
	 viewBox="0 0 481.882 481.882" style="enable-background:new 0 0 481.882 481.882;" xml:space="preserve">
<path style="fill:#4DB6AC;" d="M277.489,6.074c-4.427-6.4-13.207-7.996-19.607-3.561L124.544,94.816
	c-6.4,4.435-8.004,13.229-3.569,19.622l200.666,289.837c4.45,6.408,13.229,8.004,19.622,3.576l133.331-92.311
	c6.4-4.442,8.004-13.222,3.569-19.622L277.489,6.074z"/>
<path style="fill:#00897B;" d="M426.421,298.983c-0.158,7.974,2.372,15.428,6.716,21.361l-72.975,50.56
	c-6.152-9.427-16.76-15.774-28.883-16c-7.627-0.151-14.78,2.184-20.638,6.152L156.89,138.923
	c9.005-6.182,14.916-16.497,15.149-28.205c0.151-7.62-2.116-14.705-6.234-20.503l73.118-50.635
	c6.174,8.998,16.489,14.984,28.258,15.217c7.688,0.158,14.863-2.184,20.721-6.302l153.886,222.148
	C432.7,276.749,426.647,287.147,426.421,298.983z"/>
<path style="fill:#80CBC4;" d="M115.637,50.897c-7.416-3.78-16.489-0.821-20.269,6.588l-78.66,154.421
	c-3.78,7.416-0.828,16.489,6.588,20.269L359.002,403.19c7.409,3.78,16.482,0.821,20.262-6.588l78.66-154.428
	c3.78-7.416,0.836-16.489-6.588-20.262L115.637,50.897z"/>
<path style="fill:#26A69A;" d="M404.209,251.013c3.908,7.575,10.059,13.312,17.137,16.693l-43.038,84.555
	c-10.579-5.737-23.763-6.34-35.298-0.414c-7.236,3.72-12.792,9.547-16.294,16.248L69.474,237.009
	c5.346-10.368,5.677-23.078-0.045-34.214c-3.72-7.236-9.442-12.762-16.256-16.128l43.144-84.698
	c10.368,5.346,23.108,5.745,34.304-0.008c7.311-3.757,12.868-9.577,16.301-16.429l257.363,131.027
	C398.856,226.912,398.419,239.757,404.209,251.013z"/>
<path style="fill:#80CBC4;" d="M481.882,466.821c0,8.32-6.746,15.059-15.059,15.059H15.059C6.746,481.88,0,475.141,0,466.821V225.88
	c0-8.312,6.746-15.059,15.059-15.059h451.765c8.312,0,15.059,6.746,15.059,15.059V466.821z"/>
<path style="fill:#00897B;" d="M451.765,293.645v105.412c-29.139,0-52.706,23.567-52.706,52.706H82.824
	c0-29.139-23.567-52.706-52.706-52.706V293.645c29.139,0,52.706-23.567,52.706-52.706h316.235
	C399.059,270.078,422.626,293.645,451.765,293.645z"/>
<circle style="fill:#B2DFDB;" cx="391.529" cy="346.351" r="22.588"/>
<circle style="fill:#00897B;" cx="90.353" cy="346.351" r="22.588"/>
<path style="fill:#B2DFDB;" d="M82.824,451.763c0-29.139-23.567-52.706-52.706-52.706V293.645c29.139,0,52.706-23.567,52.706-52.706
	h266.511l30.118-30.118H15.059C6.746,210.821,0,217.568,0,225.88v240.941c0,8.312,6.746,15.059,15.059,15.059h93.335l30.118-30.118
	H82.824z"/>
<path style="fill:#26A69A;" d="M30.118,293.645v105.412c29.139,0,52.706,23.567,52.706,52.706h55.688l50.748-50.741
	c-14.509-13.726-23.612-33.129-23.612-54.671c0-41.57,33.709-75.294,75.294-75.294c21.542,0,40.945,9.103,54.664,23.62l53.73-53.737
	H82.824C82.824,270.078,59.256,293.645,30.118,293.645z M112.941,346.351c0,12.469-10.12,22.588-22.588,22.588
	s-22.588-10.12-22.588-22.588s10.12-22.588,22.588-22.588S112.941,333.882,112.941,346.351z"/>
<circle style="fill:#B2DFDB;" cx="240.941" cy="346.351" r="75.294"/>
<path style="fill:#26A69A;" d="M240.836,307.401c2.62,0,4.698,2.078,4.698,4.698v1.272c4.879,0.73,9.231,2.168,13.116,4.329
	c1.717,1.009,3.253,2.718,3.253,5.429c0,3.441-2.711,6.061-6.144,6.061c-1.092,0-2.161-0.264-3.162-0.798
	c-2.53-1.363-5.067-2.44-7.499-3.072v13.726c13.734,3.704,19.607,9.321,19.607,19.441c0,10.135-7.763,16.632-19.162,17.905v4.796
	c0,2.628-2.071,4.698-4.698,4.698c-2.628,0-4.706-2.071-4.706-4.698v-4.872c-6.415-0.813-12.469-3.072-17.807-6.34
	c-1.897-1.175-3.072-2.982-3.072-5.421c0-3.531,2.711-6.136,6.234-6.136c1.175,0,2.447,0.444,3.531,1.16
	c3.795,2.44,7.409,4.164,11.573,5.06v-14.374c-13.018-3.531-19.441-8.501-19.441-19.253c0-9.939,7.597-16.64,18.982-17.807v-1.099
	C236.13,309.487,238.216,307.401,240.836,307.401z M236.589,336.698V324.5c-4.337,0.632-6.242,2.793-6.242,5.692
	C230.347,332.986,231.62,334.899,236.589,336.698z M245.09,352.51v12.574c4.239-0.648,6.415-2.635,6.415-5.88
	C251.497,356.222,249.961,354.234,245.09,352.51z"/>
<g>
	<path style="fill:#FFFFFF;" d="M218.323,369.971c-1.897-1.175-3.072-2.982-3.072-5.421c0-3.524,2.703-6.136,6.227-6.136
		c1.175,0,2.44,0.459,3.524,1.175c1.235,0.791,2.455,1.385,3.674,2.018l7.883-7.883v-3.441
		c-13.003-3.516-19.411-8.486-19.411-19.238c0-9.924,7.59-16.61,18.967-17.777v-1.092c0-2.62,2.071-4.698,4.698-4.698
		c2.62,0,4.691,2.078,4.691,4.698v1.265c4.872,0.723,9.216,2.161,13.101,4.329c1.717,0.994,3.253,2.711,3.253,5.421
		c0,3.433-2.711,6.061-6.136,6.061c-1.099,0-2.168-0.279-3.162-0.813c-2.53-1.363-5.06-2.432-7.499-3.064V339.1
		c1.687,0.452,3.245,0.934,4.698,1.446l45.862-45.869c-13.734-14.517-33.137-23.62-54.679-23.62
		c-41.585,0-75.294,33.724-75.294,75.294c0,21.542,9.103,40.945,23.62,54.671l30.344-30.344
		C219.181,370.422,218.737,370.219,218.323,369.971z"/>
	<circle style="fill:#FFFFFF;" cx="90.353" cy="346.351" r="22.588"/>
	<path style="fill:#FFFFFF;" d="M236.559,324.583v12.13c-4.977-1.747-6.219-3.735-6.219-6.528S232.2,325.201,236.559,324.583z"/>
</g>
<g>
</g>
<g>
</g>
<g>
</g>
<g>
</g>
<g>
</g>
<g>
</g>
<g>
</g>
<g>
</g>
<g>
</g>
<g>
</g>
<g>
</g>
<g>
</g>
<g>
</g>
<g>
</g>
<g>
</g>
</svg>
