<?xml version="1.0" encoding="iso-8859-1"?>
<!-- Generator: Adobe Illustrator 19.0.0, SVG Export Plug-In . SVG Version: 6.00 Build 0)  -->
<svg version="1.1" id="Layer_1" xmlns="http://www.w3.org/2000/svg" xmlns:xlink="http://www.w3.org/1999/xlink" x="0px" y="0px"
	 viewBox="0 0 481.882 481.882" style="enable-background:new 0 0 481.882 481.882;" xml:space="preserve">
<path style="fill:#FFF59D;" d="M240.941,30.118c116.247,0,210.824,94.577,210.824,210.824s-94.577,210.824-210.824,210.824
	S30.118,357.188,30.118,240.941S124.695,30.118,240.941,30.118 M240.941,0C107.874,0,0,107.874,0,240.941
	c0,133.075,107.874,240.941,240.941,240.941s240.941-107.866,240.941-240.941C481.882,107.874,374.008,0,240.941,0L240.941,0z"/>
<path style="fill:#FDD835;" d="M240.941,451.765c-116.247,0-210.824-94.577-210.824-210.824S124.695,30.118,240.941,30.118
	s210.824,94.577,210.824,210.824S357.188,451.765,240.941,451.765z"/>
<path style="fill:#FFEE58;" d="M240.941,30.118c-116.247,0-210.824,94.577-210.824,210.824c0,59.821,25.088,113.867,65.25,152.282
	L393.224,95.368C354.808,55.206,300.762,30.118,240.941,30.118z"/>
<path style="fill:#FFF9C4;" d="M30.118,240.941c0-116.247,94.577-210.824,210.824-210.824c59.671,0,113.589,24.952,151.989,64.941
	l21.368-21.368C370.47,28.288,309.03,0,240.941,0C107.874,0,0,107.874,0,240.941C0,309.03,28.288,370.47,73.69,414.276
	l21.368-21.353C55.078,354.53,30.118,300.619,30.118,240.941z"/>
<path style="fill:#8E6134;" d="M246.295,90.616c8.674,0,15.541,6.867,15.541,15.541v7.951c21.323,2.522,39.386,9.397,56.004,19.878
	c5.805,3.26,10.842,8.681,10.842,17.355c0,11.204-9.035,19.885-20.239,19.885c-3.607,0-7.221-1.092-10.827-3.268
	c-12.649-7.575-24.945-13.011-37.225-15.887v69.399c54.935,13.719,78.434,35.772,78.434,74.443
	c0,39.763-31.089,66.146-76.988,70.483v7.529c0,8.659-6.867,15.541-15.541,15.541c-8.674,0-15.902-6.882-15.902-15.541v-8.252
	c-27.113-2.899-52.051-12.664-74.097-28.19c-6.144-3.976-9.766-9.766-9.766-17.355c0-11.204,8.674-19.885,19.885-19.885
	c4.337,0,8.674,1.438,11.927,3.968c16.994,12.288,33.619,20.6,53.496,24.215v-71.198c-52.781-13.734-77.35-33.611-77.35-74.466
	c0-38.671,30.72-65.416,75.904-69.03v-7.567C230.392,97.483,237.621,90.616,246.295,90.616z M231.838,213.865v-63.97
	c-23.13,2.168-34.703,14.456-34.703,30.351C197.135,195.433,204.002,204.83,231.838,213.865z M260.39,264.109v65.769
	c23.123-2.53,35.787-14.088,35.787-31.45C296.177,282.541,288.218,272.783,260.39,264.109z"/>
<g>
</g>
<g>
</g>
<g>
</g>
<g>
</g>
<g>
</g>
<g>
</g>
<g>
</g>
<g>
</g>
<g>
</g>
<g>
</g>
<g>
</g>
<g>
</g>
<g>
</g>
<g>
</g>
<g>
</g>
</svg>
