<?xml version="1.0" encoding="iso-8859-1"?>
<!-- Generator: Adobe Illustrator 19.0.0, SVG Export Plug-In . SVG Version: 6.00 Build 0)  -->
<svg version="1.1" id="Layer_1" xmlns="http://www.w3.org/2000/svg" xmlns:xlink="http://www.w3.org/1999/xlink" x="0px" y="0px"
	 viewBox="0 0 481.882 481.882" style="enable-background:new 0 0 481.882 481.882;" xml:space="preserve">
<path style="fill:#FFF59D;" d="M346.353,16.941c65.4,0,118.588,53.195,118.588,118.588c0,65.4-53.188,118.588-118.588,118.588
	S227.765,200.93,227.765,135.529C227.765,70.136,280.952,16.941,346.353,16.941 M346.353,0c-74.85,0-135.529,60.68-135.529,135.529
	s60.68,135.529,135.529,135.529s135.529-60.68,135.529-135.529S421.203,0,346.353,0L346.353,0z"/>
<path style="fill:#FDD835;" d="M346.353,254.118c-65.4,0-118.588-53.188-118.588-118.588c0-65.385,53.188-118.588,118.588-118.588
	s118.588,53.203,118.588,118.588C464.941,200.93,411.753,254.118,346.353,254.118z"/>
<path style="fill:#FFEE58;" d="M346.353,16.941c-65.4,0-118.588,53.195-118.588,118.588c0,33.656,14.118,64.053,36.706,85.662
	L432.015,53.647C410.406,31.059,380.017,16.941,346.353,16.941z"/>
<path style="fill:#FFF9C4;" d="M227.765,135.529c0-65.385,53.188-118.588,118.588-118.588c33.566,0,63.895,14.042,85.489,36.533
	l12.032-12.017C419.215,15.91,384.648,0,346.353,0c-74.85,0-135.529,60.68-135.529,135.529c0,38.295,15.91,72.862,41.457,97.513
	l12.017-12.032C241.807,199.424,227.765,169.096,227.765,135.529z"/>
<path style="fill:#8E6134;" d="M407.243,185.336c-10.978,14.238-24.599,23.793-45.538,23.793c-30.087,0-51.238-19.32-58.963-48.188
	h-10.978c-4.879,0-8.742-3.863-8.742-8.734c0-4.683,3.863-8.749,8.742-8.749h7.928c-0.203-2.44-0.203-5.082-0.203-7.718
	c0-3.057,0-6.31,0.422-9.352h-8.132c-4.872,0-8.742-3.87-8.742-8.546c0-4.872,3.87-8.734,8.742-8.734h11.392
	c7.928-27.452,28.868-47.179,57.736-47.179c21.549,0,34.575,8.546,45.139,20.744c1.626,1.626,3.26,4.683,3.26,8.328
	c0,6.513-5.489,11.791-12.002,11.791c-4.262,0-7.115-2.033-8.734-4.066c-7.725-9.344-15.661-14.434-28.265-14.434
	c-14.63,0-25.615,9.562-31.307,24.809h36.179c4.676,0,8.538,3.863,8.538,8.734c0,4.676-3.863,8.546-8.538,8.546H325.12
	c-0.407,2.846-0.407,5.896-0.407,8.945c0,2.846,0,5.489,0.196,8.132h40.267c4.676,0,8.538,4.066,8.538,8.749
	c0,4.872-3.863,8.734-8.538,8.734h-36.6c5.707,16.264,17.295,25.826,33.355,25.826c12.19,0,20.126-5.896,27.851-15.458
	c2.04-2.432,4.872-4.066,8.734-4.066c6.114,0,11.181,4.879,11.181,10.978C409.683,181.271,408.463,183.913,407.243,185.336z"/>
<path style="fill:#FFF59D;" d="M135.529,227.765c65.393,0,118.588,53.188,118.588,118.588s-53.195,118.588-118.588,118.588
	S16.941,411.753,16.941,346.353S70.136,227.765,135.529,227.765 M135.529,210.824C60.68,210.824,0,271.503,0,346.353
	s60.68,135.529,135.529,135.529s135.529-60.68,135.529-135.529S210.379,210.824,135.529,210.824L135.529,210.824z"/>
<path style="fill:#FDD835;" d="M135.529,464.941c-65.393,0-118.588-53.188-118.588-118.588c0-65.385,53.195-118.588,118.588-118.588
	s118.588,53.203,118.588,118.588C254.118,411.753,200.922,464.941,135.529,464.941z"/>
<path style="fill:#FFEE58;" d="M135.529,227.765c-65.393,0-118.588,53.188-118.588,118.588c0,33.656,14.118,64.053,36.706,85.662
	l167.544-167.544C199.582,241.882,169.186,227.765,135.529,227.765z"/>
<path style="fill:#FFF9C4;" d="M16.941,346.353c0-65.385,53.195-118.588,118.588-118.588c33.566,0,63.895,14.042,85.489,36.533
	l12.024-12.017c-24.651-25.547-59.219-41.457-97.513-41.457C60.68,210.824,0,271.503,0,346.353c0,38.295,15.91,72.862,41.457,97.513
	l12.017-12.032C30.984,410.248,16.941,379.919,16.941,346.353z"/>
<path style="fill:#8E6134;" d="M138.541,261.798c4.872,0,8.734,3.878,8.734,8.749v4.473c12.002,1.416,22.159,5.293,31.518,11.174
	c3.253,1.83,6.106,4.879,6.106,9.766c0,6.31-5.09,11.174-11.392,11.174c-2.033,0-4.066-0.61-6.099-1.822
	c-7.115-4.277-14.027-7.326-20.939-8.945v39.04c30.901,7.71,44.115,20.126,44.115,41.886c0,22.362-17.483,37.195-43.309,39.65v4.239
	c0,4.872-3.863,8.734-8.734,8.734c-4.879,0-8.945-3.863-8.945-8.734v-4.638c-15.247-1.626-29.282-7.115-41.683-15.857
	c-3.456-2.229-5.489-5.489-5.489-9.758c0-6.302,4.879-11.166,11.181-11.166c2.432,0,4.872,0.798,6.709,2.236
	c9.562,6.912,18.906,11.573,30.095,13.621v-40.041c-29.688-7.733-43.512-18.914-43.512-41.886c0-21.76,17.28-36.804,42.699-38.829
	v-4.262C129.596,265.66,133.662,261.798,138.541,261.798z M130.409,331.136v-35.991c-13.018,1.227-19.524,8.139-19.524,17.092
	C110.893,320.753,114.748,326.046,130.409,331.136z M146.47,359.379v37c13.018-1.423,20.126-7.936,20.126-17.694
	C166.596,369.747,162.123,364.265,146.47,359.379z"/>
<g>
	<path style="fill:#FFFFFF;" d="M30.118,158.118H0l45.176,60.235l45.176-60.235H60.235V97.882c0-20.073,10.037-30.118,30.118-30.118
		h60.235v30.118l60.235-45.176L150.588,7.529v30.118H90.353c-40.154,0-60.235,20.073-60.235,60.235V158.118z"/>
	<path style="fill:#FFFFFF;" d="M444.235,331.294h30.118l-45.176-60.235L384,331.294h30.118v60.235
		c0,20.073-10.037,30.118-30.118,30.118h-60.235v-30.118l-60.235,45.176l60.235,45.176v-30.118H384
		c40.154,0,60.235-20.073,60.235-60.235V331.294z"/>
</g>
<g>
</g>
<g>
</g>
<g>
</g>
<g>
</g>
<g>
</g>
<g>
</g>
<g>
</g>
<g>
</g>
<g>
</g>
<g>
</g>
<g>
</g>
<g>
</g>
<g>
</g>
<g>
</g>
<g>
</g>
</svg>
