<?xml version="1.0" encoding="iso-8859-1"?>
<!-- Generator: Adobe Illustrator 19.0.0, SVG Export Plug-In . SVG Version: 6.00 Build 0)  -->
<svg version="1.1" id="Layer_1" xmlns="http://www.w3.org/2000/svg" xmlns:xlink="http://www.w3.org/1999/xlink" x="0px" y="0px"
	 viewBox="0 0 481.882 481.882" style="enable-background:new 0 0 481.882 481.882;" xml:space="preserve">
<g>
	<path style="fill:#BBDEFB;" d="M90.353,95.518c0,12.755-8.041,24.132-20.088,28.386c-23.386,8.275-40.147,30.584-40.147,56.802
		v240.941c0,33.265,26.97,60.235,60.235,60.235h150.588V75.294H90.353V95.518z"/>
	<path style="fill:#BBDEFB;" d="M411.618,123.896c-12.047-4.247-20.088-15.624-20.088-28.378V75.294H90.353v20.224
		c0,12.755-8.041,24.132-20.088,28.386c-23.386,8.275-40.147,30.584-40.147,56.802v240.941c0,33.265,26.97,60.235,60.235,60.235
		h150.588h150.588c33.265,0,60.235-26.97,60.235-60.235V180.706C451.765,154.488,434.997,132.179,411.618,123.896z"/>
</g>
<path style="fill:#64B5F6;" d="M135.529,133.165c0,12.755-8.041,24.132-20.088,28.386c-23.386,8.275-40.147,30.584-40.147,56.802
	v173.176c0,24.945,20.232,45.176,45.176,45.176h120.471V75.294H135.529V133.165z"/>
<path style="fill:#42A5F5;" d="M366.441,161.544c-12.047-4.247-20.088-15.624-20.088-28.378V75.294H240.941H135.529v57.871
	c0,12.755-8.041,24.132-20.088,28.386c-23.386,8.275-40.147,30.584-40.147,56.802v173.176c0,24.945,20.232,45.176,45.176,45.176
	h120.471h120.471c24.945,0,45.176-20.239,45.176-45.176V218.353C406.588,192.136,389.82,169.826,366.441,161.544z"/>
<circle style="fill:#FDD835;" cx="365.176" cy="395.294" r="41.412"/>
<path style="fill:#8E6134;" d="M367.179,372.548c1.325,0,2.357,1.054,2.357,2.357v1.205c3.238,0.384,5.978,1.416,8.501,3.004
	c0.873,0.489,1.649,1.325,1.649,2.643c0,1.702-1.378,3.004-3.064,3.004c-0.542,0-1.099-0.158-1.656-0.489
	c-1.912-1.144-3.78-1.98-5.64-2.394v10.511c8.328,2.078,11.889,5.429,11.889,11.287c0,6.031-4.713,10.029-11.678,10.684v3.298
	c0,1.31-1.039,2.357-2.357,2.357c-1.318,0-2.409-1.047-2.409-2.357v-3.388c-4.104-0.452-7.883-1.928-11.226-4.277
	c-0.926-0.602-1.476-1.476-1.476-2.635c0-1.702,1.325-3.012,3.012-3.012c0.655,0,1.318,0.218,1.807,0.61
	c2.575,1.86,5.097,3.125,8.102,3.667v-10.805c-8.004-2.078-11.731-5.105-11.731-11.294c0-5.858,4.653-9.901,11.505-10.466v-1.152
	C364.762,373.587,365.862,372.548,367.179,372.548z M364.988,391.236v-9.705c-3.509,0.339-5.263,2.191-5.263,4.6
	C359.718,388.435,360.764,389.85,364.988,391.236z M369.318,398.856v9.969c3.509-0.384,5.421-2.131,5.421-4.766
	C374.739,401.649,373.527,400.158,369.318,398.856z"/>
<path style="fill:#80CBC4;" d="M207.925,432.572c-1.784,3.644-6.189,5.18-9.848,3.381L79.044,377.864
	c-3.652-1.777-5.173-6.174-3.388-9.848l122.632-251.279c1.777-3.659,6.182-5.18,9.841-3.396L327.16,171.43
	c3.644,1.777,5.18,6.189,3.381,9.848L207.925,432.572z"/>
<path style="fill:#4DB6AC;" d="M221.515,136.267l79.352,38.724c-3.561,7.281-0.497,16.136,6.761,19.682L204.378,406.28
	c-7.273-3.546-16.128-0.482-19.674,6.761l-79.36-38.716c3.561-7.281,0.504-16.143-6.761-19.682l103.266-211.607
	C209.107,146.59,217.961,143.541,221.515,136.267z"/>
<circle style="fill:#26A69A;" cx="203.106" cy="274.665" r="44.152"/>
<path style="fill:#B2DFDB;" d="M174.81,260.088c0.783-1.611,2.68-2.274,4.299-1.483l1.476,0.723c2.402-3.735,5.323-6.46,8.779-8.606
	c1.122-0.783,2.598-1.235,4.209-0.452c2.086,1.016,2.884,3.479,1.867,5.564c-0.331,0.678-0.858,1.235-1.596,1.724
	c-2.56,1.664-4.683,3.464-6.332,5.489l12.905,6.295c7.537-8.96,13.771-11.339,20.962-7.823c7.394,3.607,9.48,11.776,6.121,20.706
	l4.028,1.98c1.619,0.783,2.266,2.68,1.476,4.299c-0.791,1.604-2.711,2.334-4.329,1.544l-4.171-2.04
	c-2.997,4.789-7.07,8.546-11.964,11.219c-1.303,0.783-2.703,0.941-4.111,0.248c-2.086-1.032-2.914-3.426-1.897-5.504
	c0.392-0.798,1.062-1.476,1.822-1.852c3.825-2.04,6.882-4.382,9.352-7.755l-13.244-6.445c-7.341,8.568-13.267,11.332-20.864,7.627
	c-7.191-3.509-9.382-11.648-5.948-20.375l-1.416-0.693C174.637,263.665,174.02,261.7,174.81,260.088z M196.412,273.958
	l-11.896-5.798c-1.694,4.495-0.459,7.748,2.5,9.201C189.839,278.739,192.203,278.317,196.412,273.958z M208.354,273.205
	l12.228,5.971c1.634-4.533,0.625-7.928-2.605-9.517C215.025,268.228,212.488,268.823,208.354,273.205z"/>
<path style="fill:#80CBC4;" d="M398.366,340.104c1.724,3.682,0.128,8.056-3.561,9.781l-120.019,56.011
	c-3.682,1.724-8.056,0.128-9.788-3.561L146.763,148.962c-1.724-3.682-0.136-8.049,3.561-9.788L270.336,83.17
	c3.674-1.717,8.056-0.128,9.781,3.561L398.366,340.104z"/>
<path style="fill:#26A69A;" d="M176.542,143.194l80.015-37.353c3.426,7.341,12.228,10.534,19.561,7.115l99.569,213.368
	c-7.341,3.426-10.526,12.228-7.1,19.561l-80.015,37.353c-3.426-7.349-12.228-10.534-19.576-7.108l-99.576-213.384
	C176.768,159.315,179.968,150.513,176.542,143.194z"/>
<circle style="fill:#4DB6AC;" cx="272.565" cy="244.54" r="44.152"/>
<path style="fill:#B2DFDB;" d="M243.223,257.325c-0.768-1.626-0.083-3.516,1.544-4.262l1.498-0.708
	c-1.4-4.224-1.694-8.207-1.175-12.235c0.105-1.378,0.678-2.801,2.312-3.561c2.101-0.986,4.525-0.045,5.489,2.056
	c0.316,0.678,0.437,1.453,0.339,2.319c-0.316,3.034-0.256,5.813,0.271,8.373l13.018-6.076c-2.236-11.505-0.151-17.837,7.1-21.218
	c7.454-3.486,15.119,0.038,19.945,8.267l4.066-1.897c1.634-0.76,3.516-0.075,4.277,1.559c0.76,1.619,0.105,3.584-1.528,4.337
	l-4.209,1.965c1.83,5.331,2.184,10.857,1.197,16.361c-0.203,1.498-0.971,2.68-2.394,3.343c-2.093,0.979-4.488,0.113-5.474-1.995
	c-0.376-0.806-0.474-1.747-0.294-2.59c0.813-4.247,0.919-8.102-0.158-12.145l-13.327,6.242c2.04,11.113,0.474,17.446-7.191,21.03
	c-7.251,3.373-14.953-0.045-19.592-8.192l-1.416,0.663C245.896,259.704,243.976,258.959,243.223,257.325z M267.588,249.254
	l-12.002,5.602c2.44,4.149,5.752,5.24,8.734,3.855C267.159,257.385,268.341,255.262,267.588,249.254z M274.515,239.503l12.341-5.752
	c-2.5-4.119-5.783-5.474-9.028-3.96C274.839,231.176,273.709,233.525,274.515,239.503z"/>
<path style="fill:#D32F2F;" d="M376.471,0H105.412C88.779,0,75.294,13.485,75.294,30.118v15.059v15.059
	c0,8.312,6.746,15.059,15.059,15.059h301.176c8.312,0,15.059-6.746,15.059-15.059V45.176V30.118C406.588,13.485,393.103,0,376.471,0
	z"/>
<path style="fill:#B2DFDB;" d="M169.434,162.635c7.334-3.418,10.534-12.213,7.108-19.561l64.399-30.05V96.791l-90.616,42.285
	c-3.689,1.724-5.278,6.106-3.561,9.781l94.178,201.803v-34.793L169.434,162.635z"/>
<path style="fill:#4DB6AC;" d="M169.434,162.793l71.507,153.224v-40.674c-3.351-3.441-6.234-7.462-8.38-12.077
	c-7.981-17.099-4.028-36.646,8.38-49.416V113.182l-64.399,30.057C179.968,150.566,176.768,159.368,169.434,162.793z"/>
<path style="fill:#80CBC4;" d="M232.561,264.192c2.146,4.616,5.03,8.629,8.38,12.085v-61.508
	C228.533,227.546,224.58,247.1,232.561,264.192z"/>
<path style="fill:#EF5350;" d="M240.941,0H105.412C88.779,0,75.294,13.485,75.294,30.118v15.059v15.059
	c0,8.312,6.746,15.059,15.059,15.059h150.588V0z"/>
<circle style="fill:#FFEE58;" cx="301.176" cy="384" r="52.706"/>
<path style="fill:#A97A45;" d="M303.721,355.049c1.679,0,2.997,1.333,2.997,2.989v1.536c4.119,0.474,7.605,1.807,10.812,3.832
	c1.114,0.632,2.093,1.679,2.093,3.343c0,2.161-1.739,3.848-3.908,3.848c-0.708,0-1.408-0.203-2.101-0.64
	c-2.432-1.446-4.811-2.507-7.176-3.049v13.372c10.601,2.658,15.134,6.904,15.134,14.366c0,7.688-6.001,12.755-14.856,13.613v4.179
	c0,1.679-1.325,2.989-2.997,2.989c-1.672,0-3.057-1.318-3.057-2.989v-4.322c-5.233-0.55-10.044-2.44-14.291-5.429
	c-1.182-0.783-1.89-1.897-1.89-3.351c0-2.161,1.679-3.84,3.84-3.84c0.828,0,1.687,0.279,2.319,0.768
	c3.275,2.364,6.475,3.976,10.308,4.676V387.2c-10.187-2.65-14.908-6.475-14.908-14.359c0-7.469,5.926-12.627,14.63-13.327v-1.453
	C300.664,356.382,302.042,355.049,303.721,355.049z M300.936,378.827v-12.348c-4.465,0.437-6.701,2.793-6.701,5.858
	C294.234,375.281,295.56,377.088,300.936,378.827z M306.44,388.533v12.702c4.465-0.489,6.904-2.718,6.904-6.084
	C313.344,392.079,311.808,390.197,306.44,388.533z"/>
<circle style="fill:#FFEE58;" cx="116.706" cy="395.294" r="41.412"/>
<path style="fill:#A97A45;" d="M118.709,372.548c1.318,0,2.357,1.054,2.357,2.357v1.205c3.238,0.384,5.978,1.416,8.501,3.004
	c0.873,0.489,1.649,1.325,1.649,2.643c0,1.702-1.378,3.004-3.072,3.004c-0.542,0-1.099-0.158-1.649-0.489
	c-1.912-1.144-3.78-1.98-5.64-2.394v10.511c8.328,2.078,11.889,5.429,11.889,11.287c0,6.031-4.713,10.029-11.678,10.684v3.298
	c0,1.31-1.039,2.357-2.357,2.357s-2.409-1.047-2.409-2.357v-3.388c-4.111-0.452-7.891-1.928-11.234-4.277
	c-0.926-0.602-1.476-1.476-1.476-2.635c0-1.702,1.318-3.012,3.012-3.012c0.655,0,1.318,0.218,1.807,0.61
	c2.575,1.86,5.097,3.125,8.109,3.667v-10.805c-8.004-2.078-11.731-5.105-11.731-11.294c0-5.858,4.653-9.901,11.505-10.466v-1.152
	C116.292,373.587,117.391,372.548,118.709,372.548z M116.518,391.236v-9.705c-3.509,0.339-5.263,2.191-5.263,4.6
	C111.247,388.435,112.294,389.85,116.518,391.236z M120.847,398.856v9.969c3.509-0.384,5.421-2.131,5.421-4.766
	C126.268,401.649,125.056,400.158,120.847,398.856z"/>
<g>
</g>
<g>
</g>
<g>
</g>
<g>
</g>
<g>
</g>
<g>
</g>
<g>
</g>
<g>
</g>
<g>
</g>
<g>
</g>
<g>
</g>
<g>
</g>
<g>
</g>
<g>
</g>
<g>
</g>
</svg>
