<?xml version="1.0" encoding="iso-8859-1"?>
<!-- Generator: Adobe Illustrator 19.0.0, SVG Export Plug-In . SVG Version: 6.00 Build 0)  -->
<svg version="1.1" id="Layer_1" xmlns="http://www.w3.org/2000/svg" xmlns:xlink="http://www.w3.org/1999/xlink" x="0px" y="0px"
	 viewBox="0 0 475.627 475.627" style="enable-background:new 0 0 475.627 475.627;" xml:space="preserve">
<g>
	<path style="fill:#FDD835;" d="M362.686,87.225c0,8.32-6.746,15.059-15.059,15.059H16.333c-8.312,0-15.059-6.739-15.059-15.059
		V26.99c0-8.312,6.746-15.059,15.059-15.059h331.294c8.312,0,15.059,6.746,15.059,15.059V87.225z"/>
	<path style="fill:#FDD835;" d="M422.921,177.578c0,8.32-6.746,15.059-15.059,15.059H76.568c-8.312,0-15.059-6.739-15.059-15.059
		v-60.235c0-8.312,6.746-15.059,15.059-15.059h331.294c8.312,0,15.059,6.746,15.059,15.059V177.578z"/>
	<path style="fill:#FDD835;" d="M392.804,267.931c0,8.32-6.746,15.059-15.059,15.059H46.451c-8.312,0-15.059-6.739-15.059-15.059
		v-60.235c0-8.312,6.746-15.059,15.059-15.059h331.294c8.312,0,15.059,6.746,15.059,15.059V267.931z"/>
	<path style="fill:#FDD835;" d="M422.921,358.284c0,8.32-6.746,15.059-15.059,15.059H76.568c-8.312,0-15.059-6.739-15.059-15.059
		v-60.235c0-8.312,6.746-15.059,15.059-15.059h331.294c8.312,0,15.059,6.746,15.059,15.059V358.284z"/>
	<path style="fill:#FDD835;" d="M362.686,448.637c0,8.32-6.746,15.059-15.059,15.059H16.333c-8.312,0-15.059-6.739-15.059-15.059
		v-60.235c0-8.312,6.746-15.059,15.059-15.059h331.294c8.312,0,15.059,6.746,15.059,15.059V448.637z"/>
</g>
<g>
	<rect x="76.568" y="11.931" style="fill:#FFEE58;" width="30.118" height="90.353"/>
	<rect x="166.296" y="11.931" style="fill:#FFEE58;" width="30.118" height="90.353"/>
	<rect x="256.017" y="11.931" style="fill:#FFEE58;" width="30.118" height="90.353"/>
	<rect x="136.804" y="102.284" style="fill:#FFEE58;" width="30.118" height="90.353"/>
	<rect x="226.532" y="102.284" style="fill:#FFEE58;" width="30.118" height="90.353"/>
	<rect x="316.252" y="102.284" style="fill:#FFEE58;" width="30.118" height="90.353"/>
	<rect x="106.686" y="192.637" style="fill:#FFEE58;" width="30.118" height="90.353"/>
	<rect x="76.568" y="373.343" style="fill:#FFEE58;" width="30.118" height="90.353"/>
	<rect x="166.296" y="373.343" style="fill:#FFEE58;" width="30.118" height="90.353"/>
</g>
<g>
	<path style="fill:#FFFFFF;" d="M456.774,69.155c-21.549,3.027-33.845,15.315-36.864,36.864c-0.136,0.896-1.37,0.896-1.483,0
		c-3.034-21.549-15.33-33.837-36.879-36.864c-0.896-0.136-0.896-1.37,0-1.483c21.549-3.034,33.845-15.322,36.872-36.879
		c0.128-0.896,1.363-0.896,1.483,0c3.019,21.557,15.315,33.845,36.864,36.879C457.67,67.784,457.67,69.019,456.774,69.155z"/>
	<path style="fill:#FFFFFF;" d="M75.891,192.743c-21.549,3.027-33.837,15.322-36.864,36.872c-0.136,0.888-1.37,0.888-1.483,0
		c-3.034-21.549-15.322-33.845-36.872-36.872c-0.896-0.12-0.896-1.363,0-1.483c21.549-3.027,33.837-15.322,36.872-36.872
		c0.12-0.888,1.355-0.888,1.483,0c3.027,21.549,15.315,33.845,36.864,36.872C76.787,191.38,76.787,192.622,75.891,192.743z"/>
</g>
<path style="fill:#FFF59D;" d="M294.921,124.872c87.183,0,158.118,70.935,158.118,158.118s-70.935,158.118-158.118,158.118
	S136.804,370.173,136.804,282.99S207.738,124.872,294.921,124.872 M294.921,102.284c-99.802,0-180.706,80.904-180.706,180.706
	s80.904,180.706,180.706,180.706s180.706-80.904,180.706-180.706S394.724,102.284,294.921,102.284L294.921,102.284z"/>
<path style="fill:#FDD835;" d="M294.921,441.108c-87.183,0-158.118-70.935-158.118-158.118s70.935-158.118,158.118-158.118
	s158.118,70.935,158.118,158.118S382.104,441.108,294.921,441.108z"/>
<path style="fill:#FFEE58;" d="M294.921,124.872c-87.191,0-158.118,70.935-158.118,158.118c0,44.868,18.824,85.406,48.941,114.206
	l223.383-223.383C380.328,143.696,339.789,124.872,294.921,124.872z"/>
<path style="fill:#8E6134;" d="M298.935,170.245c6.498,0,11.656,5.158,11.656,11.656v5.971c15.992,1.897,29.553,7.048,42.022,14.901
	c4.337,2.432,8.132,6.505,8.132,13.011c0,8.41-6.776,14.908-15.194,14.908c-2.703,0-5.421-0.821-8.132-2.44
	c-9.487-5.692-18.688-9.758-27.912-11.927v52.051c41.201,10.3,58.827,26.827,58.827,55.853c0,29.809-23.311,49.604-57.743,52.864
	v5.64c0,6.498-5.158,11.663-11.656,11.663c-6.505,0-11.927-5.165-11.927-11.663v-6.189c-20.329-2.161-39.048-9.487-55.575-21.143
	c-4.608-2.982-7.326-7.319-7.326-13.018c0-8.395,6.505-14.901,14.908-14.901c3.26,0,6.505,1.092,8.945,2.982
	c12.732,9.208,25.208,15.443,40.109,18.153v-53.414c-39.582-10.293-58.007-25.216-58.007-55.838c0-29.011,23.04-49.069,56.93-51.78
	v-5.692C287.008,175.402,292.429,170.245,298.935,170.245z M288.092,262.683v-47.97c-17.348,1.619-26.022,10.835-26.022,22.761
	C262.071,248.859,267.213,255.899,288.092,262.683z M309.513,300.376v49.34c17.355-1.912,26.835-10.571,26.835-23.59
	C336.348,314.2,330.377,306.873,309.513,300.376z"/>
<path style="fill:#FFF9C4;" d="M136.804,282.99c0-87.183,70.935-158.118,158.118-158.118c44.747,0,85.188,18.718,113.988,48.708
	l16.03-16.03c-32.873-34.048-78.953-55.266-130.018-55.266c-99.802,0-180.706,80.904-180.706,180.706
	c0,51.072,21.21,97.144,55.266,130.018l16.03-16.03C155.522,368.178,136.804,327.737,136.804,282.99z"/>
<g>
</g>
<g>
</g>
<g>
</g>
<g>
</g>
<g>
</g>
<g>
</g>
<g>
</g>
<g>
</g>
<g>
</g>
<g>
</g>
<g>
</g>
<g>
</g>
<g>
</g>
<g>
</g>
<g>
</g>
</svg>
