<?xml version="1.0" encoding="iso-8859-1"?>
<!-- Generator: Adobe Illustrator 19.0.0, SVG Export Plug-In . SVG Version: 6.00 Build 0)  -->
<svg version="1.1" id="Layer_1" xmlns="http://www.w3.org/2000/svg" xmlns:xlink="http://www.w3.org/1999/xlink" x="0px" y="0px"
	 viewBox="0 0 481.886 481.886" style="enable-background:new 0 0 481.886 481.886;" xml:space="preserve">
<path style="fill:#733725;" d="M149.606,279.052L10.899,417.736c-14.532,14.547-14.532,38.167,0,52.721l0.535,0.52
	c14.539,14.539,38.167,14.539,52.706,0l138.699-138.699C181.583,318.461,163.43,300.315,149.606,279.052z"/>
<path style="fill:#8F4D38;" d="M10.869,417.736c-14.321,14.313-14.464,37.451-0.557,52.028l127.714-127.721l-25.736-25.736
	L10.869,417.736z"/>
<path style="fill:#FDD835;" d="M149.568,279.052l-37.278,37.271l25.736,25.743l34.477-34.485
	C163.927,298.885,156.254,289.322,149.568,279.052z"/>
<path style="fill:#FBC02D;" d="M149.606,279.052l-37.278,37.271l53.24,53.24l37.271-37.278
	C181.583,318.461,163.43,300.315,149.606,279.052z"/>
<circle style="fill:#FFFFFF;" cx="301.18" cy="180.711" r="180.706"/>
<circle style="fill:#64B5F6;" cx="301.18" cy="180.711" r="143.059"/>
<path style="fill:#90CAF9;" d="M301.18,37.652c-79.006,0-143.059,64.045-143.059,143.059c0,41.246,17.559,78.291,45.478,104.41
	L405.591,83.129C379.471,55.21,342.434,37.652,301.18,37.652z"/>
<path style="fill:#FFFFFF;" d="M306.022,90.681c4.917,0,8.824,3.9,8.824,8.817v4.51c12.085,1.438,22.355,5.338,31.789,11.279
	c3.29,1.845,6.136,4.924,6.136,9.841c0,6.37-5.128,11.279-11.475,11.279c-2.04,0-4.096-0.602-6.144-1.837
	c-7.168-4.307-14.148-7.379-21.128-9.028v39.379c31.179,7.785,44.499,20.292,44.499,42.232c0,22.558-17.649,37.527-43.678,39.989
	v12.311c0,4.917-3.908,8.817-8.824,8.817c-4.917,0-9.028-3.9-9.028-8.817v-12.71c-15.368-1.641-29.515-7.183-42.029-16
	c-3.486-2.251-5.534-5.534-5.534-9.848c0-6.355,4.917-11.279,11.279-11.279c2.462,0,4.917,0.821,6.769,2.266
	c9.623,6.972,19.057,11.686,30.336,13.734v-40.395c-29.944-7.793-43.881-19.072-43.881-42.24c0-21.941,17.423-37.12,43.061-39.168
	v-4.299C296.986,94.582,301.09,90.681,306.022,90.681z M297.815,160.607v-36.299c-13.116,1.227-19.674,8.207-19.674,17.227
	C278.125,150.141,282.025,155.472,297.815,160.607z M314.01,189.106v37.323c13.124-1.438,20.299-8.004,20.299-17.837
	C334.31,199.564,329.807,194.038,314.01,189.106z"/>
<g>
</g>
<g>
</g>
<g>
</g>
<g>
</g>
<g>
</g>
<g>
</g>
<g>
</g>
<g>
</g>
<g>
</g>
<g>
</g>
<g>
</g>
<g>
</g>
<g>
</g>
<g>
</g>
<g>
</g>
</svg>
