<?xml version="1.0" encoding="iso-8859-1"?>
<!-- Generator: Adobe Illustrator 19.0.0, SVG Export Plug-In . SVG Version: 6.00 Build 0)  -->
<svg version="1.1" id="Layer_1" xmlns="http://www.w3.org/2000/svg" xmlns:xlink="http://www.w3.org/1999/xlink" x="0px" y="0px"
	 viewBox="0 0 481.886 481.886" style="enable-background:new 0 0 481.886 481.886;" xml:space="preserve">
<path style="fill:#733725;" d="M481.884,331.294c0,16.632-13.485,30.118-30.118,30.118H30.12c-16.632,0-30.118-13.485-30.118-30.118
	V30.118C0.002,13.485,13.487,0,30.12,0h421.647c16.632,0,30.118,13.485,30.118,30.118V331.294z"/>
<g>
	<path style="fill:#8F4D38;" d="M421.649,90.353H180.708V75.294H406.59C414.903,75.294,421.649,82.04,421.649,90.353z"/>
	<path style="fill:#8F4D38;" d="M421.649,180.706H301.178v-15.059H406.59C414.903,165.647,421.649,172.393,421.649,180.706z"/>
	<path style="fill:#8F4D38;" d="M406.59,338.824h-30.118v-7.529h30.118V338.824z M346.355,338.824h-30.118v-7.529h30.118V338.824z"
		/>
	<polygon style="fill:#8F4D38;" points="455.531,338.824 436.708,338.824 436.708,331.294 448.002,331.294 448.002,320 455.531,320 
			"/>
	<path style="fill:#8F4D38;" d="M455.531,289.882h-7.529v-30.118h7.529V289.882z M455.531,229.647h-7.529v-30.118h7.529V229.647z
		 M455.531,169.412h-7.529v-30.118h7.529V169.412z M455.531,109.176h-7.529V79.059h7.529V109.176z"/>
	<polygon style="fill:#8F4D38;" points="455.531,48.941 448.002,48.941 448.002,37.647 436.708,37.647 436.708,30.118 
		455.531,30.118 	"/>
	<path style="fill:#8F4D38;" d="M406.59,37.647h-30.118v-7.529h30.118V37.647z M346.355,37.647h-30.118v-7.529h30.118V37.647z
		 M286.12,37.647h-30.118v-7.529h30.118V37.647z M225.884,37.647h-30.118v-7.529h30.118V37.647z M165.649,37.647h-30.118v-7.529
		h30.118V37.647z M105.414,37.647H75.296v-7.529h30.118V37.647z"/>
	<path style="fill:#8F4D38;" d="M301.178,140.86c0-12.318-7.499-23.386-18.944-27.964L20.655,8.267
		C16.017,6.408,10.754,6.98,6.62,9.781c-4.141,2.793-6.618,7.469-6.618,12.461v318.78c0,12.318,7.499,23.386,18.936,27.964
		l240.941,110.75c9.269,3.704,19.795,2.575,28.07-3.027c8.275-5.602,13.229-14.953,13.229-24.945V140.86z"/>
</g>
<path style="fill:#F4D0A1;" d="M150.59,368.941c0-2.409,1.16-4.691,3.125-6.106s4.495-1.807,6.784-1.054l75.294,29.734
	c3.08,1.047,5.15,3.93,5.15,7.16v15.443c0,2.424-1.16,4.691-3.125,6.121c-1.965,1.416-4.495,1.792-6.784,1.039l-75.294-29.734
	c-3.08-1.031-5.15-3.915-5.15-7.16V368.941z"/>
<path style="fill:#824E3E;" d="M20.648,8.267c-4.631-1.86-9.894-1.295-14.027,1.513c-4.141,2.793-6.618,7.469-6.618,12.461v318.78
	c0,4.284,0.956,8.41,2.635,12.183L254.172,101.67L20.648,8.267z"/>
<g>
</g>
<g>
</g>
<g>
</g>
<g>
</g>
<g>
</g>
<g>
</g>
<g>
</g>
<g>
</g>
<g>
</g>
<g>
</g>
<g>
</g>
<g>
</g>
<g>
</g>
<g>
</g>
<g>
</g>
</svg>
