
<!-- Generator: visioncortex VTracer 0.6.4 -->
<svg version="1.1" xmlns="http://www.w3.org/2000/svg" viewBox="0 0 512 366" preserveAspectRatio="xMidYMid meet">
<path d="M0 0 C0.65 -0.002 1.299 -0.004 1.969 -0.005 C4.137 -0.01 6.305 -0.008 8.474 -0.005 C10.047 -0.007 11.621 -0.009 13.195 -0.012 C17.513 -0.018 21.832 -0.018 26.15 -0.017 C30.81 -0.017 35.47 -0.022 40.13 -0.027 C49.258 -0.035 58.385 -0.038 67.513 -0.038 C74.933 -0.039 82.353 -0.041 89.773 -0.044 C110.815 -0.053 131.857 -0.058 152.898 -0.057 C154.033 -0.057 155.167 -0.057 156.335 -0.057 C158.039 -0.057 158.039 -0.057 159.777 -0.057 C178.179 -0.056 196.581 -0.066 214.983 -0.08 C233.883 -0.094 252.783 -0.101 271.683 -0.1 C282.292 -0.1 292.901 -0.103 303.51 -0.113 C312.543 -0.122 321.576 -0.125 330.608 -0.118 C335.215 -0.115 339.822 -0.115 344.429 -0.123 C348.651 -0.131 352.873 -0.13 357.094 -0.121 C358.617 -0.119 360.14 -0.121 361.663 -0.127 C375.659 -0.175 388.672 0.384 399.532 10.242 C409.383 20.805 411.555 31.917 411.274 46.144 C411.251 46.799 411.227 47.454 411.204 48.129 C412.219 48.082 413.235 48.036 414.282 47.988 C426.454 47.598 436.634 49.025 446.239 57.222 C453.524 64.29 458.161 73.005 458.707 83.293 C458.729 85.101 458.729 86.909 458.711 88.717 C458.721 90.226 458.721 90.226 458.73 91.766 C458.746 95.106 458.734 98.445 458.721 101.785 C458.727 104.192 458.734 106.6 458.742 109.007 C458.759 114.848 458.756 120.689 458.745 126.53 C458.736 131.28 458.734 136.03 458.739 140.781 C458.739 141.459 458.74 142.137 458.741 142.835 C458.742 144.213 458.743 145.591 458.745 146.969 C458.756 159.866 458.743 172.762 458.721 185.659 C458.703 196.706 458.707 207.753 458.725 218.801 C458.746 231.653 458.755 244.506 458.743 257.359 C458.741 258.731 458.74 260.104 458.739 261.477 C458.738 262.489 458.738 262.489 458.737 263.523 C458.734 268.263 458.739 273.003 458.749 277.744 C458.76 284.133 458.752 290.522 458.729 296.911 C458.724 299.251 458.725 301.591 458.734 303.931 C458.745 307.135 458.731 310.337 458.711 313.541 C458.725 314.917 458.725 314.917 458.739 316.321 C458.623 325.981 455.532 334.608 449.329 342.054 C439.998 351.162 429.187 354.249 416.407 354.257 C415.433 354.26 415.433 354.26 414.438 354.263 C412.27 354.267 410.102 354.265 407.934 354.262 C406.36 354.264 404.786 354.267 403.212 354.269 C398.894 354.275 394.575 354.275 390.257 354.274 C385.597 354.274 380.937 354.279 376.277 354.284 C367.15 354.292 358.022 354.295 348.895 354.296 C341.474 354.296 334.054 354.298 326.634 354.301 C305.592 354.31 284.551 354.315 263.509 354.314 C262.374 354.314 261.24 354.314 260.072 354.314 C258.368 354.314 258.368 354.314 256.631 354.314 C238.228 354.313 219.826 354.323 201.424 354.337 C182.524 354.351 163.624 354.358 144.724 354.357 C134.115 354.357 123.506 354.36 112.897 354.371 C103.865 354.38 94.832 354.382 85.799 354.375 C81.192 354.372 76.585 354.372 71.978 354.381 C67.756 354.388 63.535 354.387 59.313 354.378 C57.79 354.377 56.267 354.378 54.744 354.384 C40.748 354.432 27.736 353.873 16.875 344.015 C7.024 333.453 4.852 322.34 5.133 308.113 C5.156 307.458 5.18 306.803 5.204 306.129 C4.188 306.175 3.172 306.221 2.125 306.269 C-10.047 306.66 -20.227 305.233 -29.832 297.035 C-37.117 289.967 -41.754 281.253 -42.3 270.964 C-42.321 269.156 -42.322 267.348 -42.304 265.541 C-42.311 264.535 -42.317 263.528 -42.323 262.492 C-42.339 259.152 -42.327 255.812 -42.314 252.472 C-42.319 250.065 -42.327 247.658 -42.335 245.25 C-42.352 239.409 -42.349 233.568 -42.338 227.727 C-42.329 222.977 -42.327 218.227 -42.332 213.477 C-42.332 212.798 -42.333 212.12 -42.334 211.422 C-42.335 210.044 -42.336 208.666 -42.337 207.288 C-42.349 194.392 -42.336 181.495 -42.314 168.599 C-42.296 157.551 -42.299 146.504 -42.318 135.457 C-42.339 122.604 -42.348 109.751 -42.335 96.898 C-42.334 95.526 -42.333 94.153 -42.332 92.781 C-42.331 92.106 -42.33 91.43 -42.33 90.735 C-42.326 85.994 -42.332 81.254 -42.342 76.514 C-42.353 70.124 -42.345 63.736 -42.322 57.346 C-42.317 55.006 -42.318 52.666 -42.327 50.326 C-42.338 47.123 -42.324 43.92 -42.304 40.717 C-42.318 39.34 -42.318 39.34 -42.331 37.936 C-42.216 28.277 -39.125 19.65 -32.921 12.203 C-23.591 3.096 -12.78 0.008 0 0 Z " fill="#F32415" transform="translate(47.796443939208984,5.871365547180176)"/>
<path d="M0 0 C2.698 -0.042 5.395 -0.073 8.094 -0.098 C9.228 -0.117 9.228 -0.117 10.386 -0.137 C20.205 -0.204 28.429 2.552 35.965 8.953 C44.046 17.081 48.291 26.086 48.411 37.544 C48.403 38.929 48.403 38.929 48.394 40.341 C48.401 41.344 48.407 42.348 48.413 43.382 C48.429 46.726 48.425 50.07 48.42 53.413 C48.427 55.819 48.436 58.224 48.446 60.63 C48.465 66.474 48.471 72.318 48.469 78.162 C48.468 82.916 48.472 87.67 48.479 92.423 C48.481 93.796 48.484 95.168 48.486 96.541 C48.487 97.566 48.487 97.566 48.489 98.611 C48.508 111.516 48.507 124.422 48.5 137.327 C48.494 149.113 48.515 160.899 48.548 172.686 C48.582 184.809 48.597 196.932 48.592 209.055 C48.59 215.853 48.595 222.65 48.62 229.448 C48.643 235.843 48.641 242.238 48.62 248.633 C48.617 250.974 48.622 253.315 48.636 255.656 C48.766 278.411 48.766 278.411 43 288 C42.544 288.772 42.088 289.543 41.618 290.338 C36.865 297.889 28.429 302.637 20 305 C15.359 305.776 10.906 306.126 6.204 306.129 C5.229 306.131 5.229 306.131 4.235 306.134 C2.066 306.139 -0.102 306.136 -2.27 306.134 C-3.844 306.136 -5.418 306.138 -6.992 306.141 C-11.31 306.147 -15.628 306.147 -19.947 306.145 C-24.607 306.145 -29.267 306.151 -33.927 306.155 C-43.054 306.164 -52.182 306.166 -61.309 306.167 C-68.729 306.168 -76.149 306.17 -83.569 306.173 C-104.611 306.182 -125.653 306.186 -146.695 306.185 C-147.829 306.185 -148.963 306.185 -150.132 306.185 C-151.267 306.185 -152.403 306.185 -153.573 306.185 C-171.975 306.185 -190.378 306.194 -208.78 306.208 C-227.68 306.223 -246.579 306.23 -265.479 306.229 C-276.088 306.229 -286.697 306.231 -297.306 306.242 C-306.339 306.251 -315.372 306.253 -324.405 306.247 C-329.012 306.243 -333.619 306.243 -338.226 306.252 C-342.447 306.26 -346.669 306.258 -350.891 306.25 C-352.414 306.248 -353.936 306.25 -355.459 306.255 C-369.566 306.304 -382.162 305.604 -393.293 296.027 C-400.668 288.404 -404.257 280.25 -404.176 269.664 C-404.151 268.388 -404.151 268.388 -404.125 267.086 C-404.116 266.21 -404.107 265.333 -404.098 264.43 C-404.074 262.287 -404.038 260.143 -404 258 C-403.219 257.999 -402.438 257.998 -401.634 257.997 C-355.347 257.939 -309.059 257.865 -262.772 257.771 C-257.213 257.76 -251.655 257.749 -246.096 257.738 C-244.989 257.735 -243.883 257.733 -242.743 257.731 C-224.828 257.696 -206.913 257.671 -188.999 257.65 C-170.615 257.628 -152.23 257.595 -133.846 257.551 C-122.504 257.525 -111.161 257.507 -99.819 257.501 C-92.039 257.495 -84.259 257.479 -76.48 257.454 C-71.992 257.44 -67.505 257.431 -63.018 257.435 C-58.905 257.438 -54.792 257.428 -50.679 257.407 C-49.196 257.402 -47.712 257.401 -46.229 257.407 C-32.664 257.451 -21.841 255.721 -11.375 246.75 C-3.645 237.799 -0.695 230.217 -0.722 218.502 C-0.713 217.097 -0.713 217.097 -0.704 215.663 C-0.687 212.534 -0.684 209.405 -0.681 206.276 C-0.672 204.028 -0.662 201.781 -0.651 199.534 C-0.623 193.439 -0.608 187.345 -0.595 181.25 C-0.58 174.879 -0.553 168.507 -0.527 162.136 C-0.486 151.444 -0.451 140.752 -0.422 130.06 C-0.392 119.049 -0.357 108.038 -0.317 97.028 C-0.315 96.348 -0.312 95.669 -0.31 94.969 C-0.298 91.562 -0.285 88.154 -0.273 84.747 C-0.169 56.498 -0.08 28.249 0 0 Z " fill="#582E6E" transform="translate(458,54)"/>
<path d="M0 0 C1.442 0.143 2.884 0.291 4.326 0.441 C5.53 0.564 5.53 0.564 6.759 0.689 C14.577 1.774 21.829 7.274 27 13 C33.57 21.935 35.304 30.283 35.267 41.151 C35.272 42.147 35.276 43.142 35.281 44.168 C35.294 47.489 35.292 50.811 35.291 54.132 C35.297 56.519 35.303 58.907 35.311 61.294 C35.327 67.097 35.333 72.9 35.334 78.703 C35.335 83.423 35.339 88.143 35.346 92.863 C35.363 106.262 35.372 119.662 35.371 133.061 C35.371 133.783 35.371 134.504 35.371 135.247 C35.371 135.97 35.37 136.692 35.37 137.436 C35.37 149.139 35.389 160.842 35.417 172.545 C35.446 184.579 35.459 196.612 35.458 208.646 C35.457 215.396 35.462 222.145 35.484 228.894 C35.503 235.243 35.504 241.591 35.489 247.94 C35.487 250.266 35.492 252.591 35.504 254.917 C35.519 258.101 35.51 261.284 35.494 264.468 C35.505 265.38 35.515 266.292 35.526 267.231 C35.411 278.054 31.467 287.219 24 295 C12.974 304.588 0.848 305.3 -13.167 305.241 C-14.705 305.241 -16.243 305.243 -17.781 305.246 C-21.991 305.25 -26.2 305.242 -30.41 305.232 C-34.956 305.223 -39.502 305.226 -44.048 305.228 C-51.918 305.229 -59.789 305.223 -67.659 305.211 C-79.039 305.195 -90.418 305.19 -101.797 305.187 C-120.261 305.183 -138.724 305.17 -157.187 305.151 C-175.12 305.133 -193.053 305.118 -210.986 305.11 C-212.645 305.109 -212.645 305.109 -214.337 305.108 C-219.885 305.106 -225.432 305.103 -230.98 305.101 C-276.987 305.08 -322.993 305.045 -369 305 C-369 308.63 -369 312.26 -369 316 C-369.33 316 -369.66 316 -370 316 C-370 312.04 -370 308.08 -370 304 C-371.183 304.046 -372.367 304.093 -373.586 304.141 C-386.461 304.498 -396.234 303.138 -406 294 C-412.979 286.446 -416.078 280.26 -416 270 C-415.38 269.999 -414.759 269.998 -414.12 269.997 C-377.268 269.939 -340.416 269.865 -303.564 269.771 C-299.13 269.76 -294.696 269.749 -290.261 269.738 C-288.937 269.734 -288.937 269.734 -287.587 269.731 C-273.332 269.696 -259.078 269.671 -244.824 269.65 C-230.176 269.628 -215.527 269.595 -200.879 269.551 C-191.855 269.525 -182.831 269.507 -173.807 269.501 C-167.602 269.495 -161.396 269.479 -155.191 269.454 C-151.622 269.44 -148.053 269.431 -144.484 269.435 C-125.288 269.452 -105.551 269.45 -87.25 262.875 C-85.939 262.436 -85.939 262.436 -84.602 261.988 C-80.494 260.543 -76.79 259.01 -73.168 256.578 C-61.49 248.805 -50.204 249.03 -36.552 249.161 C-35.781 249.165 -35.009 249.17 -34.214 249.174 C-32.758 249.188 -31.302 249.216 -29.848 249.263 C-24.729 249.331 -21.456 248.331 -17 246 C-14.455 243.328 -13.103 241.486 -12.844 237.75 C-13.092 233.975 -13.531 231.631 -15.812 228.562 C-20.186 225.438 -23.605 224.622 -29 224 C-28.66 223.501 -28.319 223.002 -27.969 222.488 C-26.292 220.005 -24.643 217.505 -23 215 C-22.362 214.033 -21.724 213.066 -21.066 212.07 C-7.212 190.41 -0.537 166.439 -0.568 140.771 C-0.559 139.222 -0.548 137.673 -0.537 136.124 C-0.509 131.974 -0.5 127.825 -0.494 123.675 C-0.484 119.317 -0.458 114.96 -0.434 110.602 C-0.39 102.376 -0.362 94.149 -0.339 85.923 C-0.311 76.546 -0.267 67.17 -0.222 57.794 C-0.13 38.529 -0.058 19.265 0 0 Z " fill="#DA1E11" transform="translate(423,7)"/>
<path d="M0 0 C1.346 -0 2.691 -0.002 4.037 -0.004 C6.846 -0.006 9.655 0.007 12.464 0.03 C16.056 0.058 19.648 0.055 23.24 0.042 C26.015 0.035 28.789 0.043 31.564 0.056 C33.529 0.062 35.495 0.058 37.461 0.054 C38.659 0.066 39.858 0.079 41.092 0.092 C42.669 0.1 42.669 0.1 44.278 0.108 C48.591 0.691 51.212 2.676 54.43 5.494 C57.045 10.062 56.701 14.352 56.645 19.527 C56.646 20.596 56.647 21.665 56.649 22.766 C56.647 25.022 56.636 27.278 56.615 29.534 C56.586 32.984 56.594 36.433 56.607 39.883 C56.601 42.077 56.593 44.271 56.582 46.465 C56.585 47.495 56.588 48.525 56.591 49.587 C56.468 58.906 56.468 58.906 53.148 62.496 C48.902 64.991 45.777 65.875 40.871 65.9 C39.65 65.913 38.428 65.926 37.17 65.939 C35.863 65.936 34.557 65.933 33.211 65.93 C31.844 65.934 30.477 65.94 29.11 65.946 C26.252 65.954 23.394 65.952 20.536 65.942 C16.884 65.931 13.233 65.951 9.582 65.98 C6.761 65.998 3.94 65.998 1.119 65.992 C-0.878 65.992 -2.875 66.009 -4.873 66.026 C-16.208 65.939 -16.208 65.939 -20.852 61.496 C-24.424 56.138 -24.023 50.561 -24.055 44.32 C-24.063 42.994 -24.063 42.994 -24.072 41.642 C-24.081 39.775 -24.088 37.908 -24.092 36.041 C-24.101 33.204 -24.133 30.367 -24.164 27.529 C-24.171 25.71 -24.176 23.89 -24.18 22.07 C-24.192 21.23 -24.204 20.391 -24.217 19.525 C-24.197 14.124 -23.77 9.168 -20.852 4.496 C-14.757 -0.836 -7.765 -0.068 0 0 Z " fill="#FCB302" transform="translate(76.8515625,61.50390625)"/>
<path d="M0 0 C1.051 -0.004 1.051 -0.004 2.123 -0.009 C4.482 -0.018 6.841 -0.019 9.2 -0.021 C10.887 -0.025 12.574 -0.03 14.26 -0.036 C18.851 -0.049 23.442 -0.055 28.033 -0.06 C30.9 -0.063 33.767 -0.067 36.634 -0.071 C45.599 -0.085 54.564 -0.095 63.53 -0.098 C73.887 -0.103 84.243 -0.12 94.6 -0.149 C102.6 -0.171 110.6 -0.181 118.601 -0.182 C123.381 -0.184 128.162 -0.189 132.942 -0.207 C137.439 -0.224 141.936 -0.226 146.433 -0.217 C148.084 -0.216 149.735 -0.221 151.386 -0.231 C153.639 -0.243 155.892 -0.237 158.146 -0.227 C159.407 -0.229 160.668 -0.23 161.968 -0.231 C166.262 0.253 168.723 1.895 172.017 4.558 C174.439 7.633 174.478 11.342 174.263 15.14 C172.078 19.68 169.749 21.954 165.263 24.14 C162.01 24.518 162.01 24.518 158.249 24.521 C157.207 24.528 157.207 24.528 156.145 24.536 C153.825 24.548 151.505 24.538 149.185 24.529 C147.52 24.533 145.854 24.538 144.188 24.545 C139.667 24.558 135.147 24.553 130.626 24.543 C125.894 24.536 121.161 24.543 116.429 24.548 C108.48 24.553 100.532 24.546 92.584 24.532 C83.398 24.515 74.213 24.521 65.027 24.537 C57.138 24.551 49.249 24.553 41.36 24.545 C36.649 24.54 31.939 24.539 27.228 24.549 C22.798 24.558 18.369 24.552 13.939 24.535 C12.314 24.531 10.69 24.532 9.065 24.538 C6.845 24.547 4.625 24.536 2.405 24.521 C1.163 24.52 -0.078 24.519 -1.357 24.518 C-5.943 24.006 -9.339 22.568 -12.58 19.258 C-14.699 15.379 -14.478 11.417 -13.737 7.14 C-10.367 0.913 -6.695 0.016 0 0 Z " fill="#ECE7F0" transform="translate(236.7366485595703,231.85955810546875)"/>
<path d="M0 0 C0.954 -0.005 1.908 -0.01 2.891 -0.016 C4.901 -0.022 6.911 -0.021 8.922 -0.012 C11.99 -0.004 15.057 -0.033 18.125 -0.064 C20.083 -0.066 22.042 -0.065 24 -0.062 C25.369 -0.079 25.369 -0.079 26.766 -0.097 C32.343 -0.036 35.587 0.691 40 4.434 C42.373 7.36 42.96 9.117 43.438 12.871 C42.819 17.91 40.901 20.886 36.977 24.081 C32.673 26.037 28.738 25.863 24.062 25.832 C23.105 25.835 22.147 25.838 21.16 25.841 C19.14 25.843 17.119 25.837 15.099 25.825 C12.011 25.809 8.924 25.825 5.836 25.844 C3.87 25.842 1.904 25.838 -0.062 25.832 C-0.983 25.838 -1.904 25.844 -2.853 25.85 C-9.2 25.781 -12.562 24.674 -17.312 20.309 C-19.668 16.295 -19.67 12.981 -19 8.434 C-17.667 5.026 -16.573 3.803 -13.508 1.828 C-8.9 -0.003 -4.913 -0.016 0 0 Z " fill="#ECE4EC" transform="translate(368,61.56640625)"/>
<path d="M0 0 C2.602 0.844 3.642 1.54 5.312 3.688 C6.331 7.113 5.86 9.558 5 13 C3.438 15.438 3.438 15.438 1 17 C-3.97 17.71 -5.849 17.791 -10 14.938 C-12.53 11.222 -12.788 9.412 -12 5 C-8.545 0.079 -5.888 -0.749 0 0 Z " fill="#ECE2EA" transform="translate(178,178)"/>
<path d="M0 0 C2.602 0.844 3.642 1.54 5.312 3.688 C6.331 7.113 5.86 9.558 5 13 C3.438 15.438 3.438 15.438 1 17 C-4.007 17.715 -5.854 17.811 -10 14.875 C-12.347 11.502 -12.599 10.023 -12 6 C-9.828 -0.015 -5.933 -0.416 0 0 Z " fill="#ECE3EB" transform="translate(236,178)"/>
<path d="M0 0 C2.602 0.844 3.642 1.54 5.312 3.688 C6.331 7.113 5.86 9.558 5 13 C3.438 15.438 3.438 15.438 1 17 C-4.007 17.715 -5.854 17.811 -10 14.875 C-12.347 11.502 -12.599 10.023 -12 6 C-9.828 -0.015 -5.933 -0.416 0 0 Z " fill="#ECE3EB" transform="translate(207,178)"/>
<path d="M0 0 C2.938 1.438 2.938 1.438 5 4 C5.9 8.303 5.731 11.75 3.5 15.562 C-0.002 17.576 -3.121 17.876 -7 17 C-10 14.938 -10 14.938 -12 12 C-12.625 8.5 -12.625 8.5 -12 5 C-8.579 0.128 -5.856 -0.941 0 0 Z " fill="#ECE5ED" transform="translate(349,178)"/>
<path d="M0 0 C2.938 1.438 2.938 1.438 5 4 C5.9 8.303 5.731 11.75 3.5 15.562 C-0.002 17.576 -3.121 17.876 -7 17 C-10 14.938 -10 14.938 -12 12 C-12.625 8.5 -12.625 8.5 -12 5 C-8.579 0.128 -5.856 -0.941 0 0 Z " fill="#ECE5ED" transform="translate(320,178)"/>
<path d="M0 0 C2.938 1.438 2.938 1.438 5 4 C5.9 8.303 5.731 11.75 3.5 15.562 C-0.002 17.576 -3.121 17.876 -7 17 C-10 14.938 -10 14.938 -12 12 C-12.625 8.5 -12.625 8.5 -12 5 C-8.579 0.128 -5.856 -0.941 0 0 Z " fill="#ECE5ED" transform="translate(291,178)"/>
<path d="M0 0 C4.459 0.796 5.908 1.933 8.5 5.625 C9.125 9.125 9.125 9.125 8.5 12.625 C5.908 16.317 4.459 17.454 0 18.25 C-4.459 17.454 -5.908 16.317 -8.5 12.625 C-9.125 9.125 -9.125 9.125 -8.5 5.625 C-5.908 1.933 -4.459 0.796 0 0 Z " fill="#ECE6EE" transform="translate(120.5,177.375)"/>
<path d="M0 0 C4.459 0.796 5.908 1.933 8.5 5.625 C9.125 9.125 9.125 9.125 8.5 12.625 C5.908 16.317 4.459 17.454 0 18.25 C-4.459 17.454 -5.908 16.317 -8.5 12.625 C-9.125 9.125 -9.125 9.125 -8.5 5.625 C-5.908 1.933 -4.459 0.796 0 0 Z " fill="#ECE6EE" transform="translate(91.5,177.375)"/>
<path d="M0 0 C4.459 0.796 5.908 1.933 8.5 5.625 C9.125 9.125 9.125 9.125 8.5 12.625 C5.908 16.317 4.459 17.454 0 18.25 C-4.459 17.454 -5.908 16.317 -8.5 12.625 C-9.125 9.125 -9.125 9.125 -8.5 5.625 C-5.908 1.933 -4.459 0.796 0 0 Z " fill="#ECE6EE" transform="translate(62.5,177.375)"/>
</svg>