<?xml version="1.0" encoding="UTF-8"?>
<svg version="1.1" xmlns="http://www.w3.org/2000/svg" width="256" height="256">
<path d="M0 0 C1.01456772 -0.07914642 2.02913544 -0.15829285 3.07444763 -0.23983765 C12.56448373 -0.93914487 22.06851599 -1.34567512 31.5781374 -1.66702652 C37.93630446 -1.8863289 44.25776881 -2.1939466 50.59667969 -2.74316406 C77.97375747 -5.04658488 101.58286158 -3.1017507 123.19154358 14.83296204 C142.68703098 31.71638281 153.45361096 49.87790023 155.36655742 75.77313125 C156.26785273 91.11509795 155.56034253 106.46239239 154.62725443 121.78398287 C154.09877916 130.65940988 153.8991642 139.53493549 153.70717311 148.42288506 C153.40985272 161.52713317 153.01835069 174.63654062 152.27709961 187.72385597 C152.20059581 189.11822356 152.13151801 190.51302282 152.07066727 191.90816116 C151.72186754 199.68508503 151.2358029 206.17572061 145.81518555 212.11816406 C140.89476311 216.42272161 136.79035498 218.25030782 130.2722168 218.21582031 C129.19907227 218.21259766 128.12592773 218.209375 127.02026367 218.20605469 C125.90071289 218.19767578 124.78116211 218.18929687 123.62768555 218.18066406 C122.4965332 218.17615234 121.36538086 218.17164063 120.19995117 218.16699219 C117.40497628 218.15519904 114.61010735 218.13874056 111.81518555 218.11816406 C111.83875122 219.10828491 111.83875122 219.10828491 111.86279297 220.1184082 C111.92555243 223.13907133 111.96430538 226.15959676 112.00268555 229.18066406 C112.02782227 230.21900391 112.05295898 231.25734375 112.07885742 232.32714844 C112.16692271 241.57400322 110.47434213 247.30414338 103.81518555 254.11816406 C99.57311595 256.63606348 96.46536384 257.49392601 91.55334473 257.49911499 C90.31688705 257.50757446 89.08042938 257.51603394 87.8065033 257.52474976 C86.44937001 257.51891777 85.09223803 257.51277332 83.73510742 257.50634766 C82.29569603 257.51041592 80.85628776 257.51575923 79.41688538 257.52227783 C75.51812358 257.53592705 71.61960058 257.53066277 67.72083473 257.52114058 C63.63570143 257.51353153 59.55058822 257.52059304 55.4654541 257.52529907 C48.60591979 257.530753 41.74648247 257.52357455 34.88696289 257.50927734 C26.96275863 257.49295149 19.03878596 257.49824026 11.11458731 257.51475656 C4.30421772 257.52838178 -2.50608226 257.53028603 -9.31646109 257.52244055 C-13.381021 257.51776972 -17.44547215 257.51712291 -21.51002502 257.52705002 C-25.33176548 257.53573252 -29.15320809 257.52967456 -32.97491646 257.51236725 C-34.37532113 257.50840923 -35.77575098 257.50952474 -37.17614555 257.51615524 C-39.09174565 257.52438712 -41.00740068 257.51222077 -42.92297363 257.49911499 C-44.52903095 257.49741838 -44.52903095 257.49741838 -46.16753387 257.49568748 C-51.70278413 256.80311463 -55.46700426 254.32584754 -58.99731445 250.11816406 C-59.58125977 249.43753906 -60.16520508 248.75691406 -60.7668457 248.05566406 C-63.61161058 244.16860242 -63.33553741 240.23945062 -63.3387146 235.63606262 C-63.34309685 234.86735248 -63.34747911 234.09864233 -63.35199416 233.30663794 C-63.36538205 230.72273338 -63.37156101 228.13886291 -63.37768555 225.55493164 C-63.38558655 223.70542242 -63.3938555 221.85591474 -63.40246582 220.00640869 C-63.42868709 213.92518588 -63.443994 207.84395618 -63.45825195 201.76269531 C-63.46361167 199.6693439 -63.46898918 197.57599254 -63.47438431 195.48264122 C-63.49601357 186.77464933 -63.51475013 178.0666593 -63.5260067 169.35864735 C-63.54224481 156.87895367 -63.57541888 144.3995714 -63.63240755 131.91999513 C-63.67111112 123.14535988 -63.69063992 114.37080791 -63.69592726 105.59608954 C-63.69958025 100.35536423 -63.7115961 95.11497105 -63.74403 89.87433815 C-63.77411764 84.94207791 -63.78041989 80.01035064 -63.76864624 75.07801819 C-63.76842556 73.2704539 -63.77672588 71.46286484 -63.79430008 69.65538597 C-63.94581711 53.17115363 -63.94581711 53.17115363 -59.60595131 47.51482677 C-54.07531536 42.07943681 -49.54329236 39.97728363 -41.76293945 40.02050781 C-40.73813477 40.02373047 -39.71333008 40.02695312 -38.6574707 40.03027344 C-37.59399414 40.03865234 -36.53051758 40.04703125 -35.43481445 40.05566406 C-34.35586914 40.06017578 -33.27692383 40.0646875 -32.1652832 40.06933594 C-29.50507062 40.08110679 -26.84497081 40.09755007 -24.18481445 40.11816406 C-24.2005249 39.4580835 -24.21623535 38.79800293 -24.23242188 38.11791992 C-24.29518134 35.09725679 -24.33393429 32.07673136 -24.37231445 29.05566406 C-24.39745117 28.01732422 -24.42258789 26.97898437 -24.44848633 25.90917969 C-24.53655161 16.66232491 -22.84397103 10.93218475 -16.18481445 4.11816406 C-10.94334521 0.8011376 -6.03263084 0.4209125 0 0 Z " fill="#ECEAEC" transform="translate(84.184814453125,-1.1181640625)"/>
<path d="M0 0 C1.01456772 -0.07914642 2.02913544 -0.15829285 3.07444763 -0.23983765 C12.56448373 -0.93914487 22.06851599 -1.34567512 31.5781374 -1.66702652 C37.93630446 -1.8863289 44.25776881 -2.1939466 50.59667969 -2.74316406 C77.97375747 -5.04658488 101.58286158 -3.1017507 123.19154358 14.83296204 C142.68703098 31.71638281 153.45361096 49.87790023 155.36655742 75.77313125 C156.26785273 91.11509795 155.56034253 106.46239239 154.62725443 121.78398287 C154.09877916 130.65940988 153.8991642 139.53493549 153.70717311 148.42288506 C153.40985272 161.52713317 153.01835069 174.63654062 152.27709961 187.72385597 C152.20059581 189.11822356 152.13151801 190.51302282 152.07066727 191.90816116 C151.72186754 199.68508503 151.2358029 206.17572061 145.81518555 212.11816406 C140.89476311 216.42272161 136.79035498 218.25030782 130.2722168 218.21582031 C129.19907227 218.21259766 128.12592773 218.209375 127.02026367 218.20605469 C125.90071289 218.19767578 124.78116211 218.18929687 123.62768555 218.18066406 C122.4965332 218.17615234 121.36538086 218.17164063 120.19995117 218.16699219 C117.40497628 218.15519904 114.61010735 218.13874056 111.81518555 218.11816406 C111.83875122 219.10828491 111.83875122 219.10828491 111.86279297 220.1184082 C111.92555243 223.13907133 111.96430538 226.15959676 112.00268555 229.18066406 C112.02782227 230.21900391 112.05295898 231.25734375 112.07885742 232.32714844 C112.16692271 241.57400322 110.47434213 247.30414338 103.81518555 254.11816406 C99.57311595 256.63606348 96.46536384 257.49392601 91.55334473 257.49911499 C90.31688705 257.50757446 89.08042938 257.51603394 87.8065033 257.52474976 C86.44937001 257.51891777 85.09223803 257.51277332 83.73510742 257.50634766 C82.29569603 257.51041592 80.85628776 257.51575923 79.41688538 257.52227783 C75.51812358 257.53592705 71.61960058 257.53066277 67.72083473 257.52114058 C63.63570143 257.51353153 59.55058822 257.52059304 55.4654541 257.52529907 C48.60591979 257.530753 41.74648247 257.52357455 34.88696289 257.50927734 C26.96275863 257.49295149 19.03878596 257.49824026 11.11458731 257.51475656 C4.30421772 257.52838178 -2.50608226 257.53028603 -9.31646109 257.52244055 C-13.381021 257.51776972 -17.44547215 257.51712291 -21.51002502 257.52705002 C-25.33176548 257.53573252 -29.15320809 257.52967456 -32.97491646 257.51236725 C-34.37532113 257.50840923 -35.77575098 257.50952474 -37.17614555 257.51615524 C-39.09174565 257.52438712 -41.00740068 257.51222077 -42.92297363 257.49911499 C-44.52903095 257.49741838 -44.52903095 257.49741838 -46.16753387 257.49568748 C-51.70278413 256.80311463 -55.46700426 254.32584754 -58.99731445 250.11816406 C-59.58125977 249.43753906 -60.16520508 248.75691406 -60.7668457 248.05566406 C-63.61161058 244.16860242 -63.33553741 240.23945062 -63.3387146 235.63606262 C-63.34309685 234.86735248 -63.34747911 234.09864233 -63.35199416 233.30663794 C-63.36538205 230.72273338 -63.37156101 228.13886291 -63.37768555 225.55493164 C-63.38558655 223.70542242 -63.3938555 221.85591474 -63.40246582 220.00640869 C-63.42868709 213.92518588 -63.443994 207.84395618 -63.45825195 201.76269531 C-63.46361167 199.6693439 -63.46898918 197.57599254 -63.47438431 195.48264122 C-63.49601357 186.77464933 -63.51475013 178.0666593 -63.5260067 169.35864735 C-63.54224481 156.87895367 -63.57541888 144.3995714 -63.63240755 131.91999513 C-63.67111112 123.14535988 -63.69063992 114.37080791 -63.69592726 105.59608954 C-63.69958025 100.35536423 -63.7115961 95.11497105 -63.74403 89.87433815 C-63.77411764 84.94207791 -63.78041989 80.01035064 -63.76864624 75.07801819 C-63.76842556 73.2704539 -63.77672588 71.46286484 -63.79430008 69.65538597 C-63.94581711 53.17115363 -63.94581711 53.17115363 -59.60595131 47.51482677 C-54.07531536 42.07943681 -49.54329236 39.97728363 -41.76293945 40.02050781 C-40.73813477 40.02373047 -39.71333008 40.02695312 -38.6574707 40.03027344 C-37.59399414 40.03865234 -36.53051758 40.04703125 -35.43481445 40.05566406 C-34.35586914 40.06017578 -33.27692383 40.0646875 -32.1652832 40.06933594 C-29.50507062 40.08110679 -26.84497081 40.09755007 -24.18481445 40.11816406 C-24.2005249 39.4580835 -24.21623535 38.79800293 -24.23242188 38.11791992 C-24.29518134 35.09725679 -24.33393429 32.07673136 -24.37231445 29.05566406 C-24.39745117 28.01732422 -24.42258789 26.97898437 -24.44848633 25.90917969 C-24.53655161 16.66232491 -22.84397103 10.93218475 -16.18481445 4.11816406 C-10.94334521 0.8011376 -6.03263084 0.4209125 0 0 Z M-14.99731445 14.18066406 C-17.41567147 18.12640446 -17.33549118 21.82775846 -17.3387146 26.29655457 C-17.34309685 27.03259629 -17.34747911 27.76863802 -17.35199416 28.52698404 C-17.3653788 31.00033243 -17.37156028 33.4736452 -17.37768555 35.94702148 C-17.38558681 37.71771404 -17.39385578 39.48840499 -17.40246582 41.25909424 C-17.42868434 47.08059146 -17.44399387 52.90209586 -17.45825195 58.72363281 C-17.46361181 60.72783221 -17.46898932 62.73203155 -17.47438431 64.73623085 C-17.49601329 73.07363734 -17.51474969 81.4110419 -17.5260067 89.74846935 C-17.54224373 101.69566439 -17.57541541 113.64253408 -17.63240755 125.58960646 C-17.67111639 133.99057177 -17.69064055 142.39145009 -17.69592726 150.79250222 C-17.69957958 155.80966847 -17.71158813 160.82648769 -17.74403 165.84355736 C-17.77412694 170.5657058 -17.78041665 175.28729756 -17.76864624 180.00952148 C-17.76842564 181.73968392 -17.7767197 183.46987232 -17.79430008 185.19994545 C-18.24403748 196.64832222 -18.24403748 196.64832222 -13.62388802 206.75359631 C-7.65503389 212.41342225 -0.61179673 211.54355038 7.16088867 211.50634766 C8.52148357 211.51041636 9.88207516 211.51575991 11.24266052 211.52227783 C14.92655775 211.53592191 18.61020213 211.53066494 22.29410362 211.52114058 C26.15501954 211.51352884 30.01591426 211.52059379 33.87683105 211.52529907 C40.35973993 211.53075222 46.84254617 211.52357661 53.32543945 211.50927734 C60.81339573 211.49295162 68.30110692 211.49824045 75.78905725 211.51475656 C82.22575807 211.52838402 88.66238524 211.53028495 95.09909582 211.52244055 C98.94009256 211.51777094 102.78097422 211.51711952 106.6219635 211.52705002 C110.23359169 211.53573581 113.84490484 211.52966868 117.4564991 211.51236725 C119.40905961 211.50652834 121.36164685 211.5154042 123.31419373 211.52474976 C131.51071755 211.54887279 131.51071755 211.54887279 138.81518555 208.11816406 C142.81963757 203.68079831 143.94054257 201.28159413 143.93544006 195.37289429 C143.93681473 194.15009262 143.93818939 192.92729095 143.93960571 191.66743469 C143.93606635 190.30514502 143.93243153 188.94285559 143.92871094 187.58056641 C143.92842899 186.15171816 143.92858696 184.72286977 143.92915344 183.29402161 C143.92944111 179.40788772 143.92354939 175.52178452 143.91657948 171.63565779 C143.91034078 167.57706322 143.90974174 163.518468 143.90855408 159.45986938 C143.90544229 151.77112268 143.89723095 144.08239015 143.88720459 136.3936497 C143.87603872 127.6416557 143.8705318 118.88966104 143.86550915 110.1376617 C143.85504822 92.13115444 143.83745172 74.12466039 143.81518555 56.11816406 C142.79682617 56.11405518 141.7784668 56.10994629 140.72924805 56.10571289 C136.91933883 56.08379693 133.11044421 56.02938111 129.30102539 55.96557617 C127.65822132 55.94250399 126.0152716 55.92802593 124.37231445 55.92260742 C107.50652889 55.85604543 107.50652889 55.85604543 102.22686768 51.63514709 C97.38630791 46.43351786 96.21759034 41.77209089 96.20581055 34.77832031 C96.18927429 34.01136337 96.17273804 33.24440643 96.15570068 32.45420837 C96.10752012 30.02960975 96.08591799 27.60563679 96.06518555 25.18066406 C96.03700058 23.52633621 96.00706964 21.87203713 95.9753418 20.21777344 C95.90177022 16.18462192 95.85201381 12.15181163 95.81518555 8.11816406 C82.48933752 8.02547823 69.1635662 7.95440594 55.83746147 7.91091537 C49.64958179 7.89004193 43.46192267 7.86172805 37.27416992 7.81640625 C31.3024898 7.77294085 25.33102181 7.74902513 19.35919571 7.73865509 C17.08101182 7.73126505 14.80283951 7.71683409 12.52474594 7.69524384 C9.33338085 7.66620144 6.14289202 7.66220852 2.95141602 7.6640625 C2.0098616 7.6496814 1.06830719 7.63530029 0.09822083 7.6204834 C-6.70515976 7.66324167 -10.39594638 8.94462453 -14.99731445 14.18066406 Z " fill="#FBCA00" transform="translate(84.184814453125,-1.1181640625)"/>
<path d="M0 0 C1.01456772 -0.07914642 2.02913544 -0.15829285 3.07444763 -0.23983765 C12.56448373 -0.93914487 22.06851599 -1.34567512 31.5781374 -1.66702652 C37.93630446 -1.8863289 44.25776881 -2.1939466 50.59667969 -2.74316406 C77.97375747 -5.04658488 101.58286158 -3.1017507 123.19154358 14.83296204 C142.68703098 31.71638281 153.45361096 49.87790023 155.36655742 75.77313125 C156.26785273 91.11509795 155.56034253 106.46239239 154.62725443 121.78398287 C154.09877916 130.65940988 153.8991642 139.53493549 153.70717311 148.42288506 C153.40985272 161.52713317 153.01835069 174.63654062 152.27709961 187.72385597 C152.20059581 189.11822356 152.13151801 190.51302282 152.07066727 191.90816116 C151.72186754 199.68508503 151.2358029 206.17572061 145.81518555 212.11816406 C140.89476311 216.42272161 136.79035498 218.25030782 130.2722168 218.21582031 C129.19907227 218.21259766 128.12592773 218.209375 127.02026367 218.20605469 C125.90071289 218.19767578 124.78116211 218.18929687 123.62768555 218.18066406 C122.4965332 218.17615234 121.36538086 218.17164063 120.19995117 218.16699219 C117.40497628 218.15519904 114.61010735 218.13874056 111.81518555 218.11816406 C111.83875122 219.10828491 111.83875122 219.10828491 111.86279297 220.1184082 C111.92555243 223.13907133 111.96430538 226.15959676 112.00268555 229.18066406 C112.02782227 230.21900391 112.05295898 231.25734375 112.07885742 232.32714844 C112.16692271 241.57400322 110.47434213 247.30414338 103.81518555 254.11816406 C99.57311595 256.63606348 96.46536384 257.49392601 91.55334473 257.49911499 C90.31688705 257.50757446 89.08042938 257.51603394 87.8065033 257.52474976 C86.44937001 257.51891777 85.09223803 257.51277332 83.73510742 257.50634766 C82.29569603 257.51041592 80.85628776 257.51575923 79.41688538 257.52227783 C75.51812358 257.53592705 71.61960058 257.53066277 67.72083473 257.52114058 C63.63570143 257.51353153 59.55058822 257.52059304 55.4654541 257.52529907 C48.60591979 257.530753 41.74648247 257.52357455 34.88696289 257.50927734 C26.96275863 257.49295149 19.03878596 257.49824026 11.11458731 257.51475656 C4.30421772 257.52838178 -2.50608226 257.53028603 -9.31646109 257.52244055 C-13.381021 257.51776972 -17.44547215 257.51712291 -21.51002502 257.52705002 C-25.33176548 257.53573252 -29.15320809 257.52967456 -32.97491646 257.51236725 C-34.37532113 257.50840923 -35.77575098 257.50952474 -37.17614555 257.51615524 C-39.09174565 257.52438712 -41.00740068 257.51222077 -42.92297363 257.49911499 C-44.52903095 257.49741838 -44.52903095 257.49741838 -46.16753387 257.49568748 C-51.70278413 256.80311463 -55.46700426 254.32584754 -58.99731445 250.11816406 C-59.58125977 249.43753906 -60.16520508 248.75691406 -60.7668457 248.05566406 C-63.61161058 244.16860242 -63.33553741 240.23945062 -63.3387146 235.63606262 C-63.34309685 234.86735248 -63.34747911 234.09864233 -63.35199416 233.30663794 C-63.36538205 230.72273338 -63.37156101 228.13886291 -63.37768555 225.55493164 C-63.38558655 223.70542242 -63.3938555 221.85591474 -63.40246582 220.00640869 C-63.42868709 213.92518588 -63.443994 207.84395618 -63.45825195 201.76269531 C-63.46361167 199.6693439 -63.46898918 197.57599254 -63.47438431 195.48264122 C-63.49601357 186.77464933 -63.51475013 178.0666593 -63.5260067 169.35864735 C-63.54224481 156.87895367 -63.57541888 144.3995714 -63.63240755 131.91999513 C-63.67111112 123.14535988 -63.69063992 114.37080791 -63.69592726 105.59608954 C-63.69958025 100.35536423 -63.7115961 95.11497105 -63.74403 89.87433815 C-63.77411764 84.94207791 -63.78041989 80.01035064 -63.76864624 75.07801819 C-63.76842556 73.2704539 -63.77672588 71.46286484 -63.79430008 69.65538597 C-63.94581711 53.17115363 -63.94581711 53.17115363 -59.60595131 47.51482677 C-54.07531536 42.07943681 -49.54329236 39.97728363 -41.76293945 40.02050781 C-40.73813477 40.02373047 -39.71333008 40.02695312 -38.6574707 40.03027344 C-37.59399414 40.03865234 -36.53051758 40.04703125 -35.43481445 40.05566406 C-34.35586914 40.06017578 -33.27692383 40.0646875 -32.1652832 40.06933594 C-29.50507062 40.08110679 -26.84497081 40.09755007 -24.18481445 40.11816406 C-24.2005249 39.4580835 -24.21623535 38.79800293 -24.23242188 38.11791992 C-24.29518134 35.09725679 -24.33393429 32.07673136 -24.37231445 29.05566406 C-24.39745117 28.01732422 -24.42258789 26.97898437 -24.44848633 25.90917969 C-24.53655161 16.66232491 -22.84397103 10.93218475 -16.18481445 4.11816406 C-10.94334521 0.8011376 -6.03263084 0.4209125 0 0 Z M-14.99731445 14.18066406 C-17.41567147 18.12640446 -17.33549118 21.82775846 -17.3387146 26.29655457 C-17.34309685 27.03259629 -17.34747911 27.76863802 -17.35199416 28.52698404 C-17.3653788 31.00033243 -17.37156028 33.4736452 -17.37768555 35.94702148 C-17.38558681 37.71771404 -17.39385578 39.48840499 -17.40246582 41.25909424 C-17.42868434 47.08059146 -17.44399387 52.90209586 -17.45825195 58.72363281 C-17.46361181 60.72783221 -17.46898932 62.73203155 -17.47438431 64.73623085 C-17.49601329 73.07363734 -17.51474969 81.4110419 -17.5260067 89.74846935 C-17.54224373 101.69566439 -17.57541541 113.64253408 -17.63240755 125.58960646 C-17.67111639 133.99057177 -17.69064055 142.39145009 -17.69592726 150.79250222 C-17.69957958 155.80966847 -17.71158813 160.82648769 -17.74403 165.84355736 C-17.77412694 170.5657058 -17.78041665 175.28729756 -17.76864624 180.00952148 C-17.76842564 181.73968392 -17.7767197 183.46987232 -17.79430008 185.19994545 C-18.24403748 196.64832222 -18.24403748 196.64832222 -13.62388802 206.75359631 C-7.65503389 212.41342225 -0.61179673 211.54355038 7.16088867 211.50634766 C8.52148357 211.51041636 9.88207516 211.51575991 11.24266052 211.52227783 C14.92655775 211.53592191 18.61020213 211.53066494 22.29410362 211.52114058 C26.15501954 211.51352884 30.01591426 211.52059379 33.87683105 211.52529907 C40.35973993 211.53075222 46.84254617 211.52357661 53.32543945 211.50927734 C60.81339573 211.49295162 68.30110692 211.49824045 75.78905725 211.51475656 C82.22575807 211.52838402 88.66238524 211.53028495 95.09909582 211.52244055 C98.94009256 211.51777094 102.78097422 211.51711952 106.6219635 211.52705002 C110.23359169 211.53573581 113.84490484 211.52966868 117.4564991 211.51236725 C119.40905961 211.50652834 121.36164685 211.5154042 123.31419373 211.52474976 C131.51071755 211.54887279 131.51071755 211.54887279 138.81518555 208.11816406 C142.81963757 203.68079831 143.94054257 201.28159413 143.93544006 195.37289429 C143.93681473 194.15009262 143.93818939 192.92729095 143.93960571 191.66743469 C143.93606635 190.30514502 143.93243153 188.94285559 143.92871094 187.58056641 C143.92842899 186.15171816 143.92858696 184.72286977 143.92915344 183.29402161 C143.92944111 179.40788772 143.92354939 175.52178452 143.91657948 171.63565779 C143.91034078 167.57706322 143.90974174 163.518468 143.90855408 159.45986938 C143.90544229 151.77112268 143.89723095 144.08239015 143.88720459 136.3936497 C143.87603872 127.6416557 143.8705318 118.88966104 143.86550915 110.1376617 C143.85504822 92.13115444 143.83745172 74.12466039 143.81518555 56.11816406 C142.79682617 56.11405518 141.7784668 56.10994629 140.72924805 56.10571289 C136.91933883 56.08379693 133.11044421 56.02938111 129.30102539 55.96557617 C127.65822132 55.94250399 126.0152716 55.92802593 124.37231445 55.92260742 C107.50652889 55.85604543 107.50652889 55.85604543 102.22686768 51.63514709 C97.38630791 46.43351786 96.21759034 41.77209089 96.20581055 34.77832031 C96.18927429 34.01136337 96.17273804 33.24440643 96.15570068 32.45420837 C96.10752012 30.02960975 96.08591799 27.60563679 96.06518555 25.18066406 C96.03700058 23.52633621 96.00706964 21.87203713 95.9753418 20.21777344 C95.90177022 16.18462192 95.85201381 12.15181163 95.81518555 8.11816406 C82.48933752 8.02547823 69.1635662 7.95440594 55.83746147 7.91091537 C49.64958179 7.89004193 43.46192267 7.86172805 37.27416992 7.81640625 C31.3024898 7.77294085 25.33102181 7.74902513 19.35919571 7.73865509 C17.08101182 7.73126505 14.80283951 7.71683409 12.52474594 7.69524384 C9.33338085 7.66620144 6.14289202 7.66220852 2.95141602 7.6640625 C2.0098616 7.6496814 1.06830719 7.63530029 0.09822083 7.6204834 C-6.70515976 7.66324167 -10.39594638 8.94462453 -14.99731445 14.18066406 Z M-54.30980682 53.78926182 C-56.45252677 57.59346247 -56.74765399 60.4954977 -56.69274902 64.73997498 C-56.69898899 65.48745265 -56.70522895 66.23493032 -56.711658 67.00505883 C-56.72756012 69.49938424 -56.71499524 71.99272861 -56.70239258 74.48706055 C-56.707815 76.27952645 -56.71493833 78.0719879 -56.72363281 79.86444092 C-56.74185613 84.72608214 -56.73480236 89.58738353 -56.72211647 94.44903064 C-56.71198213 99.54000937 -56.72138351 104.6309592 -56.72766113 109.72193909 C-56.73493693 118.27211728 -56.72535229 126.82215725 -56.70629883 135.37231445 C-56.6845372 145.25171668 -56.69157661 155.1307886 -56.71360445 165.0101828 C-56.73176866 173.49699586 -56.73431155 181.98370959 -56.72384977 190.47053581 C-56.71761958 195.53727604 -56.71676607 200.60386114 -56.72999573 205.67059135 C-56.74156818 210.43545326 -56.73350294 215.19989031 -56.7104187 219.96470642 C-56.70513877 221.71138873 -56.70663313 223.45810692 -56.71546936 225.20477486 C-56.72643739 227.5934524 -56.71264752 229.98077761 -56.69274902 232.36936951 C-56.70167191 233.05693044 -56.7105948 233.74449137 -56.71978807 234.45288748 C-56.63311045 239.83502041 -55.30118789 242.85811881 -52.18481445 247.11816406 C-48.1410638 249.81121423 -44.95930994 250.49446102 -40.15075684 250.50584412 C-38.96478409 250.51574875 -37.77881134 250.52565338 -36.55690002 250.53585815 C-35.26944382 250.53135651 -33.98198761 250.52685486 -32.65551758 250.5222168 C-31.27521717 250.52792391 -29.89492147 250.53488949 -28.51463318 250.54301453 C-24.77703315 250.56092197 -21.0396682 250.55978237 -17.30203819 250.55407214 C-14.17822795 250.55097728 -11.05446266 250.55707593 -7.93065882 250.56311089 C-0.56042379 250.57714609 6.80969529 250.57560277 14.17993164 250.56420898 C21.7770005 250.5527239 29.37371651 250.56681207 36.97073889 250.59360546 C43.50086115 250.61577159 50.03087271 250.62239794 56.56102991 250.61652905 C60.45796316 250.613161 64.35467014 250.6155644 68.25157166 250.63278008 C71.91579418 250.64826229 75.57949423 250.64428016 79.24369621 250.62547493 C81.22489614 250.62004035 83.2061196 250.63429275 85.18727112 250.64916992 C93.80556035 250.59838909 93.80556035 250.59838909 100.81518555 246.11816406 C104.38382707 242.18035273 104.94076287 238.5872011 104.94799805 233.38769531 C104.94993164 232.0602832 104.94993164 232.0602832 104.9519043 230.70605469 C104.94803711 229.79017578 104.94416992 228.87429687 104.94018555 227.93066406 C104.94405273 227.00318359 104.94791992 226.07570312 104.9519043 225.12011719 C104.95061523 224.23904297 104.94932617 223.35796875 104.94799805 222.45019531 C104.94630615 221.23940308 104.94630615 221.23940308 104.94458008 220.00415039 C105.02184044 218.10580271 105.02184044 218.10580271 103.81518555 217.11816406 C102.34862491 217.01906096 100.87732853 216.98908353 99.40742493 216.98686218 C98.45550766 216.982854 97.50359039 216.97884583 96.52282715 216.97471619 C95.4698645 216.9752449 94.41690186 216.97577362 93.33203125 216.97631836 C91.67840828 216.97110672 91.67840828 216.97110672 89.99137878 216.96578979 C87.58776165 216.95841635 85.18413763 216.95307948 82.78051186 216.94949913 C78.97716823 216.9423569 75.17395537 216.92670656 71.37065125 216.90815735 C60.55342995 216.85558658 49.73629027 216.8072803 38.91894531 216.79223633 C32.31058193 216.78295134 25.70250857 216.75284408 19.09425926 216.71091652 C16.57330982 216.69859125 14.05231442 216.69348803 11.53133583 216.69571495 C8.00230768 216.69806476 4.47421444 216.6759227 0.9453125 216.64819336 C-0.09752899 216.65479477 -1.14037048 216.66139618 -2.21481323 216.66819763 C-8.25835339 216.59019818 -11.47329521 215.93272174 -16.18481445 212.11816406 C-16.84481445 212.11816406 -17.50481445 212.11816406 -18.18481445 212.11816406 C-20.94697508 206.79114 -22.43394939 202.67237647 -22.46328735 196.5945282 C-22.47445084 195.27504684 -22.48561432 193.95556549 -22.49711609 192.59609985 C-22.49948085 191.14080839 -22.50165654 189.68551661 -22.50366211 188.23022461 C-22.51296365 186.69255548 -22.52313266 185.1548914 -22.53410339 183.61723328 C-22.56139201 179.44825151 -22.57654943 175.27930352 -22.58953142 171.11025596 C-22.60516693 166.75134647 -22.63195582 162.39250589 -22.65756226 158.03364563 C-22.70434259 149.78191769 -22.74109032 141.53017678 -22.77423513 133.27838403 C-22.81246177 123.88299917 -22.86187052 114.48768354 -22.91221929 105.09235704 C-23.01552806 85.76767671 -23.10479191 66.44295414 -23.18481445 47.11816406 C-26.89288041 47.00141701 -30.60046985 46.93073132 -34.30981445 46.86816406 C-35.3565332 46.83464844 -36.40325195 46.80113281 -37.48168945 46.76660156 C-45.13617374 46.66970936 -49.34814587 47.55249521 -54.30980682 53.78926182 Z " fill="#000000" transform="translate(84.184814453125,-1.1181640625)"/>
<path d="M0 0 C1.3948613 0.00303635 1.3948613 0.00303635 2.81790161 0.00613403 C4.2787468 0.00350555 4.2787468 0.00350555 5.769104 0.00082397 C9.0054398 -0.00359642 12.24172146 -0.00065589 15.47805786 0.00271606 C17.71625784 0.00204308 19.95445774 0.0010731 22.19265747 -0.00018311 C26.89033705 -0.00166033 31.58799766 0.00049528 36.28567505 0.00515747 C42.322164 0.01085477 48.3586085 0.0075759 54.39509583 0.00158501 C59.01887347 -0.00201993 63.6426405 -0.00088233 68.26641846 0.0017128 C70.49287928 0.00238225 72.71934106 0.001553 74.94580078 -0.00076675 C78.05163141 -0.00329218 81.15738896 0.00054576 84.26321411 0.00613403 C85.19312164 0.0041098 86.12302917 0.00208557 87.08111572 0 C93.4262956 0.0212663 93.4262956 0.0212663 94.54055786 1.13552856 C94.58119618 2.80169972 94.58327886 4.46940951 94.54055786 6.13552856 C91.07772065 7.86694717 87.0692266 7.2826794 83.25735474 7.28079224 C82.29467178 7.28415085 81.33198883 7.28750946 80.34013367 7.29096985 C77.14651207 7.30049693 73.95294279 7.30242373 70.75930786 7.30349731 C68.54735288 7.30670827 66.33539812 7.31007222 64.1234436 7.31358337 C59.48301704 7.31957877 54.84260912 7.32142281 50.20217896 7.3208313 C44.24313285 7.32072956 38.28420559 7.3343919 32.32518768 7.35160351 C27.75627081 7.36269654 23.18738294 7.36475135 18.61845398 7.36422157 C16.42072642 7.36540538 14.22299819 7.36984941 12.02528381 7.37755394 C8.95802363 7.38730111 5.89102497 7.38449692 2.82376099 7.37844849 C1.45067528 7.38687775 1.45067528 7.38687775 0.04985046 7.39547729 C-6.23112595 7.36384476 -6.23112595 7.36384476 -8.45944214 5.13552856 C-7.5888632 -0.61029243 -5.46139099 0.01830422 0 0 Z " fill="#030303" transform="translate(104.45944213867188,128.86447143554688)"/>
<path d="M0 0 C4.97573418 4.17282346 9.66304787 8.51527427 14.24609375 13.11328125 C14.90207047 13.76830124 15.55804718 14.42332123 16.23390198 15.09819031 C17.60564902 16.46926195 18.9761546 17.84157673 20.34545898 19.21508789 C22.45247257 21.32751101 24.56484026 23.43447608 26.67773438 25.54101562 C28.01334205 26.87728318 29.34863999 28.21386041 30.68359375 29.55078125 C31.63497475 30.4991259 31.63497475 30.4991259 32.60557556 31.46662903 C37 35.88501756 37 35.88501756 37 37 C32.62522526 37.11651725 28.25085173 37.18736 23.875 37.25 C22.6375 37.28351562 21.4 37.31703125 20.125 37.3515625 C10.99163731 37.4497707 10.99163731 37.4497707 6.3828125 35.359375 C1.46409793 30.48904123 -0.22207808 27.49467037 -0.390625 20.5078125 C-0.36416004 18.04657089 -0.31663805 15.58548166 -0.25 13.125 C-0.23195312 11.86429688 -0.21390625 10.60359375 -0.1953125 9.3046875 C-0.14830729 6.20234386 -0.08260676 3.1015662 0 0 Z " fill="#ADA6AE" transform="translate(186,12)"/>
<path d="M0 0 C0.94082932 0.00359528 1.88165863 0.00719055 2.85099792 0.01089478 C4.3288829 0.01067574 4.3288829 0.01067574 5.83662415 0.01045227 C9.11023623 0.01115185 12.3837922 0.01894632 15.65739441 0.02676392 C17.92040984 0.02862794 20.18342567 0.03005191 22.44644165 0.03105164 C28.41577764 0.03487807 34.38508948 0.04470942 40.35441589 0.05575562 C46.44043145 0.06596705 52.52645089 0.07054868 58.61247253 0.07559204 C70.56365505 0.08633157 82.5148196 0.10340949 94.46598816 0.12442017 C94.84817583 1.78056674 95.17993918 3.44899041 95.46598816 5.12442017 C93.5123351 7.07807323 90.53199064 6.2446414 87.93197632 6.24884033 C86.991147 6.24524506 86.05031769 6.24164978 85.08097839 6.23794556 C83.60309341 6.2381646 83.60309341 6.2381646 82.09535217 6.23838806 C78.82174009 6.23768849 75.54818412 6.22989402 72.27458191 6.22207642 C70.01156648 6.22021239 67.74855065 6.21878842 65.48553467 6.2177887 C59.51619868 6.21396226 53.54688684 6.20413092 47.57756042 6.19308472 C41.49154487 6.18287328 35.40552543 6.17829165 29.31950378 6.17324829 C17.36832127 6.16250876 5.41715672 6.14543084 -6.53401184 6.12442017 C-6.91619951 4.46827359 -7.24796286 2.79984992 -7.53401184 1.12442017 C-5.58035878 -0.8292329 -2.60001432 0.00419893 0 0 Z " fill="#000000" transform="translate(103.53401184082031,169.87557983398438)"/>
<path d="M0 0 C0.94082932 0.00359528 1.88165863 0.00719055 2.85099792 0.01089478 C4.3288829 0.01067574 4.3288829 0.01067574 5.83662415 0.01045227 C9.11023623 0.01115185 12.3837922 0.01894632 15.65739441 0.02676392 C17.92040984 0.02862794 20.18342567 0.03005191 22.44644165 0.03105164 C28.41577764 0.03487807 34.38508948 0.04470942 40.35441589 0.05575562 C46.44043145 0.06596705 52.52645089 0.07054868 58.61247253 0.07559204 C70.56365505 0.08633157 82.5148196 0.10340949 94.46598816 0.12442017 C94.84817583 1.78056674 95.17993918 3.44899041 95.46598816 5.12442017 C93.5123351 7.07807323 90.53199064 6.2446414 87.93197632 6.24884033 C86.991147 6.24524506 86.05031769 6.24164978 85.08097839 6.23794556 C83.60309341 6.2381646 83.60309341 6.2381646 82.09535217 6.23838806 C78.82174009 6.23768849 75.54818412 6.22989402 72.27458191 6.22207642 C70.01156648 6.22021239 67.74855065 6.21878842 65.48553467 6.2177887 C59.51619868 6.21396226 53.54688684 6.20413092 47.57756042 6.19308472 C41.49154487 6.18287328 35.40552543 6.17829165 29.31950378 6.17324829 C17.36832127 6.16250876 5.41715672 6.14543084 -6.53401184 6.12442017 C-6.91619951 4.46827359 -7.24796286 2.79984992 -7.53401184 1.12442017 C-5.58035878 -0.8292329 -2.60001432 0.00419893 0 0 Z " fill="#000000" transform="translate(103.53401184082031,88.87557983398438)"/>
</svg>
