<?xml version="1.0" encoding="iso-8859-1"?>
<!-- Generator: Adobe Illustrator 19.0.0, SVG Export Plug-In . SVG Version: 6.00 Build 0)  -->
<svg version="1.1" id="Layer_1" xmlns="http://www.w3.org/2000/svg" xmlns:xlink="http://www.w3.org/1999/xlink" x="0px" y="0px"
	 viewBox="0 0 481.882 481.882" style="enable-background:new 0 0 481.882 481.882;" xml:space="preserve">
<path style="fill:#90CAF9;" d="M451.765,395.272c-4.631-10.037-12.777-18.04-22.912-22.445l-112.617-30.261h-75.294h-75.294
	L53.03,372.826c-10.135,4.427-18.281,12.408-22.912,22.445L0,478.118h240.941h240.941L451.765,395.272z"/>
<path style="fill:#F4B1A9;" d="M260.924,335.036h-19.983h-19.983c-6.445,0-12.589-2.748-16.866-7.56l-38.445-30.088v33.882
	c0,0,0,56.471,75.294,56.471s75.294-56.471,75.294-56.471v-33.882l-38.438,30.088C273.513,332.288,267.384,335.036,260.924,335.036z
	"/>
<g>
	<path style="fill:#FFCDD2;" d="M204.085,327.477l-38.438-30.088v33.882c0,0,0,56.471,75.294,56.471v-52.706h-19.983
		C214.505,335.036,208.369,332.288,204.085,327.477z"/>
	<path style="fill:#FFCDD2;" d="M359.16,163.23L344.779,192l-8.546-81.95l-122.632,49.054l16.346-57.231
		c0,0-39.755,28.401-76.009,55.597l-4.924,42.059l-13.485-22.475v45.041l30.118,75.294l38.438,30.088
		c4.277,4.811,10.421,7.56,16.866,7.56h19.991h19.983c6.438,0,12.589-2.748,16.866-7.56l38.445-30.088l24.147-60.363
		c21.338-1.536,28.559-33.912,28.559-58.406C368.941,172.25,364.574,165.903,359.16,163.23z"/>
</g>
<path style="fill:#FFEBEE;" d="M213.602,159.104l16.346-57.231c0,0-39.755,28.401-76.009,55.597l-4.924,42.059l-22.468-37.451
	c-7.017,0.979-13.606,8.719-13.606,16.542c0,24.493,7.206,56.877,28.559,58.413l24.147,60.356l38.438,30.088
	c4.277,4.811,10.421,7.56,16.866,7.56h19.991V148.171L213.602,159.104z"/>
<path style="fill:#FBC02D;" d="M246.302,3.765c-67.727,0-122.639,54.912-122.639,122.639c0,10.827,2.763,35.479,2.763,35.479
	l22.588,37.647l4.924-42.059c36.254-27.189,76.009-55.597,76.009-55.597l-16.346,57.231l122.632-49.054l8.546,81.95l15.059-30.118
	c0,0,7.529-15.059,9.103-35.479C368.941,58.677,314.029,3.765,246.302,3.765z"/>
<g>
	<path style="fill:#212121;" d="M218.353,176.919c0-8.312-6.746-15.059-15.059-15.059c-0.015,0-0.03,0.008-0.045,0.008
		c0,0.158,0.045,0.309,0.045,0.467c0,8.305-6.724,15.029-15.014,15.059c0.248,8.094,6.852,14.592,15.014,14.592
		C211.607,191.977,218.353,185.239,218.353,176.919z"/>
	<path style="fill:#212121;" d="M293.602,176.919c0-8.312-6.746-15.059-15.059-15.059c-0.015,0-0.03,0.008-0.06,0.008
		c0.015,0.158,0.06,0.309,0.06,0.467c0,8.305-6.724,15.029-15.014,15.059c0.248,8.094,6.852,14.592,15.014,14.592
		C286.856,191.977,293.602,185.239,293.602,176.919z"/>
</g>
<path style="fill:#E57373;" d="M203.294,259.765h75.294c0,0,0,22.588-37.647,22.588S203.294,259.765,203.294,259.765z"/>
<polygon style="fill:#D32F2F;" points="271.059,478.095 248.471,417.86 263.529,395.287 240.798,372.533 218.225,395.106 
	233.412,417.86 210.824,478.095 "/>
<polygon style="fill:#EF5451;" points="240.941,478.095 240.941,372.661 240.798,372.533 218.225,395.106 233.412,417.86 
	210.824,478.095 "/>
<g>
	<polygon style="fill:#FFFFFF;" points="331.294,342.566 316.235,327.507 240.941,372.683 293.647,425.389 	"/>
	<polygon style="fill:#FFFFFF;" points="150.588,350.095 165.647,327.507 240.941,372.683 188.235,425.389 	"/>
	<rect x="316.235" y="447.977" style="fill:#FFFFFF;" width="75.294" height="15.059"/>
</g>
<path style="fill:#FDD836;" d="M240.941,148.171V4.036c-65.22,2.824-117.278,56.448-117.278,122.368
	c0,10.827,2.763,35.479,2.763,35.479l22.588,37.647l4.924-42.059c36.254-27.189,76.009-55.597,76.009-55.597l-16.346,57.231
	L240.941,148.171z"/>
<g>
</g>
<g>
</g>
<g>
</g>
<g>
</g>
<g>
</g>
<g>
</g>
<g>
</g>
<g>
</g>
<g>
</g>
<g>
</g>
<g>
</g>
<g>
</g>
<g>
</g>
<g>
</g>
<g>
</g>
</svg>
