<?xml version="1.0" encoding="iso-8859-1"?>
<!-- Generator: Adobe Illustrator 19.0.0, SVG Export Plug-In . SVG Version: 6.00 Build 0)  -->
<svg version="1.1" id="Layer_1" xmlns="http://www.w3.org/2000/svg" xmlns:xlink="http://www.w3.org/1999/xlink" x="0px" y="0px"
	 viewBox="0 0 481.882 481.882" style="enable-background:new 0 0 481.882 481.882;" xml:space="preserve">
<path style="fill:#969696;" d="M481.882,436.706c0,16.632-13.485,30.118-30.118,30.118H30.118C13.485,466.824,0,453.338,0,436.706
	V45.176c0-16.632,13.485-30.118,30.118-30.118h421.647c16.632,0,30.118,13.485,30.118,30.118V436.706z"/>
<path style="fill:#E2E4E5;" d="M421.647,406.588c0,8.32-6.746,15.059-15.059,15.059H75.294c-8.312,0-15.059-6.739-15.059-15.059
	V75.294c0-8.312,6.746-15.059,15.059-15.059h331.294c8.312,0,15.059,6.746,15.059,15.059V406.588z"/>
<path style="fill:#CFD3D4;" d="M451.765,15.059H30.118C13.485,15.059,0,28.544,0,45.176v391.529
	c0,16.632,13.485,30.118,30.118,30.118h4.864L475.264,26.541C469.752,19.607,461.327,15.059,451.765,15.059z"/>
<path style="fill:#F0F0F0;" d="M421.647,75.294c0-8.312-6.746-15.059-15.059-15.059H75.294c-8.312,0-15.059,6.746-15.059,15.059
	v331.294c0,8.312,6.746,15.059,15.059,15.059h4.864L421.647,80.158V75.294z"/>
<circle style="fill:#1E88E5;" cx="271.059" cy="225.882" r="60.235"/>
<path style="fill:#42A5F5;" d="M271.059,165.647c-33.265,0-60.235,26.97-60.235,60.235c0,17.867,7.831,33.882,20.194,44.913
	l84.954-84.954C304.941,173.478,288.934,165.647,271.059,165.647z"/>
<path style="fill:#F0F0F0;" d="M271.059,135.529c-49.325,0-90.353,39.898-90.353,90.353c0,49.92,40.433,90.353,90.353,90.353
	s90.353-40.433,90.353-90.353C361.412,175.488,320.459,135.529,271.059,135.529z M316.19,265.69l-26.752-26.752
	c1.928-2.718,3.253-5.865,3.825-9.291h37.835C330.248,243.441,324.781,255.955,316.19,265.69z M211.012,229.647h37.835
	c0.572,3.426,1.897,6.573,3.832,9.291l-26.76,26.752C217.336,255.955,211.87,243.441,211.012,229.647z M225.928,186.082
	l26.752,26.744c-1.928,2.718-3.253,5.873-3.825,9.291h-37.835C211.87,208.324,217.336,195.81,225.928,186.082z M258.003,244.262
	c2.718,1.928,5.865,3.253,9.291,3.825v37.835c-13.794-0.851-26.3-6.332-36.036-14.908L258.003,244.262z M274.824,248.087
	c3.426-0.572,6.573-1.897,9.291-3.825l26.752,26.752c-9.736,8.591-22.249,14.057-36.043,14.908L274.824,248.087L274.824,248.087z
	 M316.19,186.082c8.591,9.728,14.057,22.242,14.908,36.036h-37.835c-0.572-3.418-1.897-6.573-3.825-9.291L316.19,186.082z
	 M310.867,180.751l-26.752,26.752c-2.718-1.928-5.865-3.253-9.291-3.825v-37.835C288.617,166.694,301.131,172.16,310.867,180.751z
	 M267.294,165.835v37.835c-3.426,0.572-6.573,1.897-9.291,3.825l-26.752-26.752C240.994,172.16,253.5,166.694,267.294,165.835z"/>
<path style="fill:#CFD3D4;" d="M451.765,195.765c0,8.32-6.746,15.059-15.059,15.059h-30.118c-8.312,0-15.059-6.739-15.059-15.059
	v-60.235c0-8.312,6.746-15.059,15.059-15.059h30.118c8.312,0,15.059,6.746,15.059,15.059V195.765z"/>
<path style="fill:#FFFFFF;" d="M421.647,120.471h-15.059c-8.312,0-15.059,6.746-15.059,15.059v60.235
	c0,8.312,6.746,15.059,15.059,15.059h15.059V120.471z"/>
<path style="fill:#CFD3D4;" d="M451.765,346.353c0,8.32-6.746,15.059-15.059,15.059h-30.118c-8.312,0-15.059-6.739-15.059-15.059
	v-60.235c0-8.312,6.746-15.059,15.059-15.059h30.118c8.312,0,15.059,6.746,15.059,15.059V346.353z"/>
<path style="fill:#FFFFFF;" d="M421.647,271.059h-15.059c-8.312,0-15.059,6.746-15.059,15.059v60.235
	c0,8.312,6.746,15.059,15.059,15.059h15.059V271.059z"/>
<g>
	<circle style="fill:#969696;" cx="120.471" cy="353.882" r="30.118"/>
	<circle style="fill:#969696;" cx="120.471" cy="143.059" r="30.118"/>
</g>
<path style="fill:#CFD3D4;" d="M135.529,353.882c0,8.32-6.746,15.059-15.059,15.059s-15.059-6.739-15.059-15.059V143.059
	c0-8.312,6.746-15.059,15.059-15.059s15.059,6.746,15.059,15.059V353.882z"/>
<g>
	<path style="fill:#FFFFFF;" d="M271.059,135.529c-49.325,0-90.353,39.898-90.353,90.353c0,26.195,11.204,49.724,29.011,66.221
		l127.578-127.586C319.488,145.31,295.243,135.529,271.059,135.529z M225.928,265.69c-8.591-9.736-14.057-22.249-14.908-36.043
		h37.835c0.572,3.426,1.897,6.573,3.825,9.291L225.928,265.69z M248.855,222.118h-37.835c0.851-13.794,6.325-26.308,14.908-36.036
		l26.752,26.744C250.752,215.544,249.427,218.699,248.855,222.118z M267.294,203.678c-3.426,0.572-6.573,1.897-9.291,3.825
		l-26.752-26.752c9.743-8.591,22.249-14.057,36.043-14.908L267.294,203.678L267.294,203.678z M284.115,207.503
		c-2.718-1.928-5.865-3.253-9.291-3.825v-37.835c13.794,0.851,26.308,6.325,36.043,14.908L284.115,207.503z"/>
	<path style="fill:#FFFFFF;" d="M105.412,143.059v210.824c0,8.312,6.746,15.059,15.059,15.059V128
		C112.158,128,105.412,134.746,105.412,143.059z"/>
</g>
<g>
</g>
<g>
</g>
<g>
</g>
<g>
</g>
<g>
</g>
<g>
</g>
<g>
</g>
<g>
</g>
<g>
</g>
<g>
</g>
<g>
</g>
<g>
</g>
<g>
</g>
<g>
</g>
<g>
</g>
</svg>
