<svg width="24" height="24" viewBox="0 0 24 24" fill="none" xmlns="http://www.w3.org/2000/svg">
<path d="M23.422 9.98685C19.3958 5.17835 16.569 2.05282 15.0187 0.695123C14.7027 0.420291 14.3166 0.238709 13.9034 0.170653C13.4903 0.102598 13.0663 0.15075 12.6789 0.309736C7.75898 2.40583 3.54144 5.8658 0.524192 10.2812C0.285912 10.6335 0.149075 11.0445 0.128653 11.4693C0.108231 11.8941 0.205005 12.3164 0.408394 12.6899C2.17004 15.9197 5.54749 20.5691 8.09847 23.2765C8.27245 23.4605 8.48209 23.6072 8.71461 23.7075C8.94713 23.8078 9.19764 23.8596 9.45087 23.8599C9.70264 23.8606 9.95181 23.8091 10.1826 23.7085C10.4134 23.6079 10.6209 23.4605 10.7918 23.2757C14.1144 19.7152 20.506 14.7582 23.1003 12.7915C23.3111 12.6325 23.4873 12.4321 23.6182 12.2027C23.7491 11.9733 23.8318 11.7197 23.8614 11.4572C23.891 11.1948 23.8669 10.9291 23.7904 10.6763C23.714 10.4235 23.5868 10.1889 23.4167 9.98685H23.422ZM20.0534 11.7105C17.1577 6.37164 15.9547 4.27057 15.2865 3.38312C15.1002 3.14065 14.8449 2.96022 14.5541 2.86556C14.2634 2.77091 13.9508 2.76645 13.6574 2.85277C10.1527 3.86839 6.73989 5.95089 3.78849 8.87312C3.54144 9.1114 3.3653 9.41351 3.27963 9.74588C3.19397 10.0782 3.20213 10.4279 3.30322 10.7559C4.13941 13.4173 6.02215 17.2491 7.3604 19.4182C7.49055 19.6292 7.67268 19.8032 7.88936 19.9237C8.10604 20.0441 8.35 20.1068 8.59788 20.1059C8.89306 20.1068 9.18091 20.014 9.41993 19.8408C11.6854 18.2002 15.3563 16.1115 17.8711 14.6999C15.2273 16.3634 11.7464 18.6192 9.54279 20.4259C9.41983 20.527 9.27723 20.6014 9.124 20.6445C8.97078 20.6875 8.81029 20.6983 8.65269 20.6761C8.49039 20.6538 8.33437 20.5985 8.19422 20.5137C8.05407 20.4289 7.93275 20.3163 7.83772 20.1828C6.27053 17.9686 3.99974 13.9733 2.91341 11.1192C2.8099 10.8402 2.78541 10.5381 2.84265 10.2461C2.89989 9.95417 3.03664 9.68367 3.23781 9.46446C5.27524 7.18838 8.7181 4.1424 13.5257 2.55577C13.6618 2.51126 13.8041 2.48859 13.9473 2.48859C14.1378 2.48728 14.3263 2.52702 14.5001 2.60512C14.6738 2.68322 14.8287 2.79783 14.9541 2.94116C15.7585 3.87723 17.3407 6.26733 20.5988 11.4674C20.7799 11.7657 20.8361 12.1233 20.7553 12.4627C20.7221 12.6201 20.6582 12.7693 20.5672 12.9019C20.4762 13.0345 20.3599 13.1478 20.2249 13.2352L19.9111 13.4244C20.0947 13.1815 20.2055 12.8915 20.2307 12.5881C20.2559 12.2847 20.1944 11.9803 20.0534 11.7105ZM19.2128 12.1463C17.3009 7.89462 16.2818 5.71754 15.6772 4.60557C16.4312 5.82891 17.6377 7.99186 19.7432 11.8793C20.0384 12.4238 19.8404 13.184 19.3269 13.4704L19.0511 13.6259C19.2001 13.4127 19.293 13.1654 19.3213 12.9068C19.3495 12.6482 19.3122 12.3867 19.2128 12.1463ZM18.3713 12.5882C17.2523 9.35397 16.4665 7.19633 15.9309 5.88195C16.5584 7.15655 17.4804 9.15862 18.8902 12.2948C18.9507 12.4341 18.9808 12.5848 18.9786 12.7367C18.9786 13.1433 18.7709 13.5561 18.4368 13.7214L18.2052 13.8363C18.322 13.6522 18.3974 13.4449 18.4261 13.2288C18.4548 13.0127 18.4361 12.7929 18.3713 12.5847V12.5882ZM17.5299 13.0302C16.8881 10.2344 16.4046 8.37724 16.0475 7.14595C16.5443 8.45237 17.1966 10.2732 18.0372 12.704C18.1972 13.1672 17.9577 13.7877 17.5528 13.9574L17.3522 14.0396C17.5331 13.7346 17.5962 13.3741 17.5299 13.0258V13.0302ZM4.02627 10.2759C4.58491 12.6033 5.93199 15.9719 6.99269 18.0959C5.7667 15.9082 4.34094 12.872 3.64 10.6569C3.5592 10.3905 3.5535 10.1071 3.62353 9.83773C3.69356 9.56838 3.8366 9.32359 4.03688 9.13034C4.11996 9.04813 4.20305 8.9677 4.28614 8.88638C4.14869 9.08639 4.05457 9.31293 4.00981 9.55146C3.96506 9.78999 3.97067 10.0352 4.02627 10.2715V10.2759ZM4.75108 9.78621C5.04012 11.6283 5.78084 14.197 6.48444 16.1637C5.63941 14.2297 4.78467 11.9209 4.37011 10.1928C4.31184 9.93905 4.32473 9.67414 4.40739 9.42725C4.49005 9.18036 4.63927 8.96108 4.83858 8.79357L4.96057 8.69015C4.76702 9.01901 4.69302 9.40464 4.75108 9.78179V9.78621ZM14.1551 4.12914C11.3398 4.64712 8.93554 5.87929 7.30471 6.89226C9.47915 5.4117 11.7181 4.38724 13.9889 3.83745C14.0658 3.81842 14.1448 3.80892 14.224 3.80916C14.3886 3.80764 14.551 3.84728 14.6964 3.92446C14.8418 4.00164 14.9657 4.11393 15.0567 4.25112C15.0841 4.29355 15.1115 4.33951 15.1451 4.38724C15.0097 4.27306 14.8507 4.19036 14.6795 4.14511C14.5083 4.09986 14.3292 4.0932 14.1551 4.1256V4.12914ZM15.138 4.95914C14.9276 4.80502 14.6669 4.7359 14.4079 4.76556C12.5083 4.9777 10.7387 5.57788 9.30944 6.20723C9.12028 6.29031 8.93819 6.3734 8.76141 6.45649C10.2446 5.66097 12.1203 4.86545 14.2187 4.47741C14.3932 4.4449 14.5735 4.46865 14.7336 4.54522C14.8938 4.62179 15.0255 4.74722 15.1097 4.90345L15.138 4.95914ZM13.9005 3.49361C11.0101 4.19455 8.1736 5.64682 5.45644 7.81684C8.0198 5.62208 10.8536 4.0381 13.752 3.19749C13.8594 3.16624 13.9707 3.15047 14.0826 3.15065C14.2596 3.14971 14.4344 3.18967 14.5934 3.2674C14.7524 3.34514 14.8913 3.45855 14.9992 3.59879C15.0549 3.67216 15.1132 3.75436 15.176 3.84717C15.0126 3.68349 14.8099 3.56465 14.5872 3.5021C14.3646 3.43955 14.1296 3.43541 13.9049 3.49007L13.9005 3.49361ZM5.63411 8.4568L5.65709 8.44C5.51658 8.70198 5.45228 8.99809 5.47147 9.29475C5.55986 10.6418 5.87719 12.6536 6.27406 14.4418C5.76758 12.8331 5.30795 11.0829 5.09581 9.73052C5.05945 9.48827 5.09091 9.24067 5.18671 9.01521C5.28251 8.78975 5.43891 8.59524 5.63853 8.45326L5.63411 8.4568ZM8.55103 17.8122C8.44157 17.868 8.32168 17.9003 8.19901 17.9071C8.07634 17.914 7.9536 17.8952 7.8386 17.852C7.72003 17.8092 7.61164 17.7423 7.52034 17.6554C7.42904 17.5685 7.35681 17.4635 7.30825 17.3472C7.27555 17.2694 7.24372 17.1881 7.21101 17.1059C7.2728 17.154 7.33945 17.1955 7.40989 17.2297C7.57157 17.3082 7.74899 17.3491 7.92875 17.349C8.07427 17.3492 8.21853 17.3219 8.35392 17.2686C9.92906 16.6498 12.2087 15.9356 14.0799 15.3637C12.1777 16.1398 10.0723 17.0308 8.55457 17.8086L8.55103 17.8122ZM15.3404 15.2338C13.1766 16.3016 10.6185 17.6009 8.8772 18.6811C8.76369 18.7518 8.63667 18.7981 8.50426 18.817C8.37185 18.8358 8.23695 18.8269 8.10819 18.7907C7.97609 18.7537 7.853 18.69 7.74656 18.6035C7.64012 18.517 7.5526 18.4095 7.48945 18.2877C7.43052 18.174 7.37159 18.0561 7.31267 17.9342C7.54366 18.1448 7.84508 18.2615 8.1577 18.2612C8.35306 18.2614 8.54571 18.2154 8.71986 18.1268C10.5257 17.1961 13.1934 16.1018 15.3439 15.2303L15.3404 15.2338ZM8.0145 19.1345C8.12968 19.1663 8.24858 19.1827 8.36807 19.1831C8.61259 19.1831 8.85214 19.1142 9.05929 18.9842C11.0923 17.722 14.2443 16.1557 16.5726 15.0199C14.1666 16.382 11.163 18.133 9.19807 19.5561C9.07985 19.6415 8.94516 19.7013 8.80256 19.7317C8.65996 19.7622 8.5126 19.7626 8.36984 19.7329C8.22213 19.7036 8.08202 19.6442 7.95824 19.5585C7.83446 19.4727 7.72965 19.3624 7.65033 19.2344C7.54514 19.0638 7.43553 18.8808 7.32416 18.6917C7.50448 18.9063 7.74689 19.0598 8.01803 19.131L8.0145 19.1345ZM14.7376 14.7936C12.7532 15.3991 10.036 16.2273 8.22752 16.9397C8.12148 16.9806 8.00817 16.9992 7.89462 16.9944C7.78108 16.9896 7.66975 16.9614 7.56758 16.9116C7.46541 16.8619 7.37457 16.7916 7.30075 16.7052C7.22694 16.6188 7.17172 16.5181 7.13854 16.4094C6.53305 14.3622 5.94348 11.1616 5.82504 9.27442C5.81125 9.04563 5.8606 8.81745 5.96769 8.6148C6.07478 8.41216 6.2355 8.24283 6.43229 8.12533C7.49299 7.48449 10.7219 5.53545 14.4432 5.12001C14.5938 5.10238 14.746 5.1355 14.8757 5.2141C15.0054 5.29271 15.1052 5.41233 15.1592 5.55402C15.4942 6.445 16.1182 8.47889 17.1816 13.1124C17.27 13.4978 17.0499 14.0759 16.6672 14.1996C16.1837 14.3499 15.5154 14.5541 14.7411 14.7901L14.7376 14.7936ZM21.0956 12.5405C21.1979 12.1095 21.1258 11.6555 20.8949 11.2774C17.6244 6.06227 16.0334 3.65978 15.2184 2.70869C14.9984 2.45893 14.7099 2.27929 14.3887 2.19208C14.0675 2.10486 13.7278 2.11391 13.4117 2.21811C8.52717 3.82949 5.03746 6.91878 2.96998 9.22757C2.72558 9.49494 2.55977 9.8246 2.49083 10.1802C2.42189 10.5358 2.45251 10.9036 2.5793 11.2429C3.67624 14.1227 5.96558 18.1525 7.54602 20.3853C7.66942 20.5589 7.8273 20.7053 8.0098 20.8153C8.1923 20.9252 8.3955 20.9964 8.60672 21.0243C8.67585 21.0338 8.74555 21.0386 8.81532 21.0385C9.16297 21.0391 9.49995 20.9184 9.76819 20.6973C12.2944 18.6263 16.5266 15.9506 19.2164 14.2747C16.0228 16.4545 12.2405 19.1451 9.87602 21.2948C9.74787 21.4114 9.597 21.5003 9.43287 21.5558C9.26874 21.6113 9.09491 21.6323 8.92229 21.6174C8.74546 21.6027 8.57353 21.5518 8.4171 21.4681C8.26067 21.3843 8.12305 21.2694 8.01273 21.1304C5.96293 18.5432 3.4031 14.3499 2.18418 11.5841C2.05762 11.2926 2.01393 10.9719 2.0579 10.6572C2.10188 10.3424 2.23183 10.046 2.43345 9.80035C4.10759 7.72138 7.74313 3.93114 13.2915 1.91493C13.4597 1.855 13.6371 1.82508 13.8156 1.82653C14.018 1.82604 14.2184 1.86642 14.4047 1.94525C14.5911 2.02408 14.7596 2.13973 14.9002 2.28529C15.9017 3.32831 17.9223 6.0331 21.4518 11.0537C21.5573 11.207 21.6315 11.3796 21.6702 11.5616C21.7089 11.7437 21.7113 11.9315 21.6772 12.1144C21.6453 12.2935 21.5783 12.4644 21.4801 12.6174C21.3843 12.7673 21.2588 12.896 21.1115 12.9957L20.7579 13.2326C20.9244 13.0323 21.0402 12.7949 21.0956 12.5405ZM22.0202 12.1754C22.0626 11.9467 22.0594 11.7118 22.0109 11.4843C21.9623 11.2568 21.8694 11.0411 21.7373 10.8496C18.1963 5.81123 16.1686 3.09584 15.1512 2.03956C14.8996 1.78007 14.5782 1.59912 14.2258 1.51864C13.8734 1.43815 13.5053 1.46159 13.166 1.58611C7.53718 3.6315 3.85037 7.47388 2.15413 9.5829C1.91163 9.87867 1.7555 10.2356 1.70293 10.6145C1.65037 10.9933 1.70343 11.3793 1.85625 11.7299C3.08489 14.5187 5.66593 18.7465 7.73076 21.3531C7.87141 21.5297 8.04668 21.6757 8.24581 21.7821C8.44493 21.8885 8.66371 21.9531 8.8887 21.9719C8.93466 21.9719 8.97708 21.9772 9.0257 21.9772C9.42671 21.9785 9.81356 21.829 10.1094 21.5582C12.9786 18.9489 18.2114 15.3708 20.6448 13.732C15.7974 17.2571 12.2891 20.0909 10.2048 22.1663C10.0695 22.2994 9.90826 22.4032 9.73116 22.4715C9.55406 22.5397 9.36484 22.5709 9.1752 22.5631C8.98557 22.5553 8.79954 22.5087 8.62864 22.4262C8.45773 22.3437 8.30557 22.2269 8.18156 22.0833C5.89487 19.4633 2.93728 15.0579 1.44877 12.0535C1.29991 11.7491 1.23766 11.4096 1.26884 11.0723C1.30002 10.7349 1.42343 10.4126 1.62555 10.1407C3.30499 7.84247 7.01744 3.64476 13.0528 1.27763C13.3533 1.15974 13.6812 1.12972 13.9981 1.19107C14.315 1.25242 14.608 1.40261 14.8428 1.62412C16.0891 2.80592 18.5287 5.75289 22.3012 10.6339C22.4232 10.7937 22.5119 10.9763 22.5623 11.1709C22.6127 11.3655 22.6237 11.5682 22.5947 11.7671C22.5669 11.964 22.4999 12.1534 22.3976 12.3239C22.296 12.4924 22.1613 12.6386 22.0016 12.7535L21.5773 13.0594C21.8085 12.8146 21.9625 12.5072 22.0202 12.1754ZM23.5131 11.4188C23.4901 11.6334 23.4233 11.841 23.3168 12.0287C23.2104 12.2165 23.0666 12.3804 22.8944 12.5104L22.3587 12.9188C22.6782 12.6321 22.8861 12.2417 22.9456 11.8166C22.9817 11.5707 22.9681 11.3201 22.9056 11.0796C22.843 10.8391 22.7328 10.6136 22.5814 10.4164C18.7983 5.52042 16.3463 2.56019 15.0867 1.36513C14.8029 1.09783 14.4491 0.916552 14.0664 0.842384C13.6837 0.768217 13.2877 0.804205 12.9247 0.946157C6.80618 3.34688 3.0407 7.60558 1.34534 9.93028C1.10524 10.2547 0.959015 10.6388 0.922689 11.0408C0.886362 11.4427 0.961337 11.8469 1.13939 12.209C2.64205 15.2356 5.6182 19.6746 7.92257 22.3131C8.07942 22.4936 8.27151 22.6401 8.48706 22.7436C8.70261 22.8471 8.93705 22.9054 9.17597 22.915H9.24491C9.47059 22.9158 9.69422 22.872 9.90295 22.7862C10.1117 22.7003 10.3014 22.5741 10.4612 22.4147C11.2381 21.6404 12.4518 20.5338 14.3327 19.001C16.189 17.4895 18.6949 15.5644 22.0723 13.1398C19.1156 15.4017 13.5664 19.7886 10.5416 23.0343C10.3931 23.1935 10.0997 23.3154 9.85835 23.395C9.61434 23.4785 9.35237 23.495 9.09984 23.4426C8.8473 23.3902 8.61349 23.2708 8.42287 23.0971C8.40077 23.0759 8.37956 23.0556 8.35923 23.0335C5.82504 20.3455 2.47058 15.7279 0.722189 12.521C0.54948 12.2042 0.467277 11.8459 0.484582 11.4855C0.501888 11.125 0.618034 10.7763 0.820302 10.4774C2.17358 8.45945 6.05044 3.4609 12.8177 0.635902C13.1435 0.502777 13.4999 0.4627 13.8471 0.52013C14.1943 0.577561 14.5188 0.730245 14.7844 0.961182C16.3215 2.3065 19.1359 5.41966 23.1498 10.214C23.2895 10.3793 23.3939 10.5715 23.4564 10.7787C23.5189 10.986 23.5382 11.2038 23.5131 11.4188Z" fill="url(#paint0_linear_792_26582)"/>
<defs>
<linearGradient id="paint0_linear_792_26582" x1="23.8737" y1="10.9806" x2="0.125976" y2="11.1115" gradientUnits="userSpaceOnUse">
<stop stop-color="#005D52"/>
<stop offset="1" stop-color="#189B41"/>
</linearGradient>
</defs>
</svg>
